<?xml version="1.0" encoding="UTF-8" standalone="no"?>
<!DOCTYPE svg PUBLIC "-//W3C//DTD SVG 1.1//EN"
 "http://www.w3.org/Graphics/SVG/1.1/DTD/svg11.dtd">
<!-- Generated by graphviz version 2.40.1 (20161225.0304)
 -->
<!-- Title: controllers_diagram Pages: 1 -->
<svg width="583pt" height="566pt"
 viewBox="0.00 0.00 583.32 566.00" xmlns="http://www.w3.org/2000/svg" xmlns:xlink="http://www.w3.org/1999/xlink">
<g id="graph0" class="graph" transform="scale(1 1) rotate(0) translate(4 562)">
<title>controllers_diagram</title>
<polygon fill="transparent" stroke="transparent" points="-4,4 -4,-562 579.3242,-562 579.3242,4 -4,4"/>
<!-- _diagram_info -->
<g id="node1" class="node">
<title>_diagram_info</title>
<text text-anchor="start" x="113" y="-418.6" font-family="Times,serif" font-size="13.00" fill="#000000">Controllers diagram</text>
<text text-anchor="start" x="113" y="-405.6" font-family="Times,serif" font-size="13.00" fill="#000000">Date: Jan 12 2017 &#45; 09:55</text>
<text text-anchor="start" x="113" y="-392.6" font-family="Times,serif" font-size="13.00" fill="#000000">Migration version: 20170109213403</text>
<text text-anchor="start" x="113" y="-379.6" font-family="Times,serif" font-size="13.00" fill="#000000">Generated by RailRoady 1.5.2</text>
<text text-anchor="start" x="113" y="-366.6" font-family="Times,serif" font-size="13.00" fill="#000000">http://railroady.prestonlee.com</text>
</g>
<!-- ApplicationController -->
<g id="node2" class="node">
<title>ApplicationController</title>
<path fill="none" stroke="#000000" d="M447,-.5C447,-.5 562.6416,-.5 562.6416,-.5 568.6416,-.5 574.6416,-6.5 574.6416,-12.5 574.6416,-12.5 574.6416,-106.5 574.6416,-106.5 574.6416,-112.5 568.6416,-118.5 562.6416,-118.5 562.6416,-118.5 447,-118.5 447,-118.5 441,-118.5 435,-112.5 435,-106.5 435,-106.5 435,-12.5 435,-12.5 435,-6.5 441,-.5 447,-.5"/>
<text text-anchor="middle" x="504.8208" y="-103.3" font-family="Times,serif" font-size="14.00" fill="#000000">ApplicationController</text>
<polyline fill="none" stroke="#000000" points="435,-96.5 574.6416,-96.5 "/>
<text text-anchor="start" x="443" y="-81.3" font-family="Times,serif" font-size="14.00" fill="#000000">current_user</text>
<polyline fill="none" stroke="#000000" points="435,-74.5 574.6416,-74.5 "/>
<polyline fill="none" stroke="#000000" points="435,-50.5 574.6416,-50.5 "/>
<text text-anchor="start" x="443" y="-35.3" font-family="Times,serif" font-size="14.00" fill="#000000">_layout</text>
<text text-anchor="start" x="443" y="-21.3" font-family="Times,serif" font-size="14.00" fill="#000000">authorize_user</text>
<text text-anchor="start" x="443" y="-7.3" font-family="Times,serif" font-size="14.00" fill="#000000">logged_in?</text>
</g>
<!-- CarsController -->
<g id="node3" class="node">
<title>CarsController</title>
<path fill="none" stroke="#000000" d="M357,-360.5C357,-360.5 432.207,-360.5 432.207,-360.5 438.207,-360.5 444.207,-366.5 444.207,-372.5 444.207,-372.5 444.207,-536.5 444.207,-536.5 444.207,-542.5 438.207,-548.5 432.207,-548.5 432.207,-548.5 357,-548.5 357,-548.5 351,-548.5 345,-542.5 345,-536.5 345,-536.5 345,-372.5 345,-372.5 345,-366.5 351,-360.5 357,-360.5"/>
<text text-anchor="middle" x="394.6035" y="-533.3" font-family="Times,serif" font-size="14.00" fill="#000000">CarsController</text>
<polyline fill="none" stroke="#000000" points="345,-526.5 444.207,-526.5 "/>
<text text-anchor="start" x="353" y="-511.3" font-family="Times,serif" font-size="14.00" fill="#000000">index</text>
<text text-anchor="start" x="353" y="-497.3" font-family="Times,serif" font-size="14.00" fill="#000000">destroy</text>
<text text-anchor="start" x="353" y="-483.3" font-family="Times,serif" font-size="14.00" fill="#000000">edit</text>
<text text-anchor="start" x="353" y="-469.3" font-family="Times,serif" font-size="14.00" fill="#000000">create</text>
<text text-anchor="start" x="353" y="-455.3" font-family="Times,serif" font-size="14.00" fill="#000000">new</text>
<text text-anchor="start" x="353" y="-441.3" font-family="Times,serif" font-size="14.00" fill="#000000">show</text>
<text text-anchor="start" x="353" y="-427.3" font-family="Times,serif" font-size="14.00" fill="#000000">update</text>
<polyline fill="none" stroke="#000000" points="345,-420.5 444.207,-420.5 "/>
<polyline fill="none" stroke="#000000" points="345,-396.5 444.207,-396.5 "/>
<text text-anchor="start" x="353" y="-381.3" font-family="Times,serif" font-size="14.00" fill="#000000">_layout</text>
<text text-anchor="start" x="353" y="-367.3" font-family="Times,serif" font-size="14.00" fill="#000000">car_params</text>
</g>
<!-- CompaniesController -->
<g id="node4" class="node">
<title>CompaniesController</title>
<path fill="none" stroke="#000000" d="M447,-150.5C447,-150.5 559.5381,-150.5 559.5381,-150.5 565.5381,-150.5 571.5381,-156.5 571.5381,-162.5 571.5381,-162.5 571.5381,-230.5 571.5381,-230.5 571.5381,-236.5 565.5381,-242.5 559.5381,-242.5 559.5381,-242.5 447,-242.5 447,-242.5 441,-242.5 435,-236.5 435,-230.5 435,-230.5 435,-162.5 435,-162.5 435,-156.5 441,-150.5 447,-150.5"/>
<text text-anchor="middle" x="503.269" y="-227.3" font-family="Times,serif" font-size="14.00" fill="#000000">CompaniesController</text>
<polyline fill="none" stroke="#000000" points="435,-220.5 571.5381,-220.5 "/>
<polyline fill="none" stroke="#000000" points="435,-196.5 571.5381,-196.5 "/>
<polyline fill="none" stroke="#000000" points="435,-172.5 571.5381,-172.5 "/>
<text text-anchor="start" x="443" y="-157.3" font-family="Times,serif" font-size="14.00" fill="#000000">_layout</text>
</g>
<!-- DriversController -->
<g id="node5" class="node">
<title>DriversController</title>
<path fill="none" stroke="#000000" d="M42,-465.5C42,-465.5 133.5313,-465.5 133.5313,-465.5 139.5313,-465.5 145.5313,-471.5 145.5313,-477.5 145.5313,-477.5 145.5313,-545.5 145.5313,-545.5 145.5313,-551.5 139.5313,-557.5 133.5313,-557.5 133.5313,-557.5 42,-557.5 42,-557.5 36,-557.5 30,-551.5 30,-545.5 30,-545.5 30,-477.5 30,-477.5 30,-471.5 36,-465.5 42,-465.5"/>
<text text-anchor="middle" x="87.7656" y="-542.3" font-family="Times,serif" font-size="14.00" fill="#000000">DriversController</text>
<polyline fill="none" stroke="#000000" points="30,-535.5 145.5313,-535.5 "/>
<polyline fill="none" stroke="#000000" points="30,-511.5 145.5313,-511.5 "/>
<polyline fill="none" stroke="#000000" points="30,-487.5 145.5313,-487.5 "/>
<text text-anchor="start" x="38" y="-472.3" font-family="Times,serif" font-size="14.00" fill="#000000">_layout</text>
</g>
<!-- LocationsController -->
<g id="node6" class="node">
<title>LocationsController</title>
<path fill="none" stroke="#000000" d="M192,-465.5C192,-465.5 296.752,-465.5 296.752,-465.5 302.752,-465.5 308.752,-471.5 308.752,-477.5 308.752,-477.5 308.752,-545.5 308.752,-545.5 308.752,-551.5 302.752,-557.5 296.752,-557.5 296.752,-557.5 192,-557.5 192,-557.5 186,-557.5 180,-551.5 180,-545.5 180,-545.5 180,-477.5 180,-477.5 180,-471.5 186,-465.5 192,-465.5"/>
<text text-anchor="middle" x="244.376" y="-542.3" font-family="Times,serif" font-size="14.00" fill="#000000">LocationsController</text>
<polyline fill="none" stroke="#000000" points="180,-535.5 308.752,-535.5 "/>
<polyline fill="none" stroke="#000000" points="180,-511.5 308.752,-511.5 "/>
<polyline fill="none" stroke="#000000" points="180,-487.5 308.752,-487.5 "/>
<text text-anchor="start" x="188" y="-472.3" font-family="Times,serif" font-size="14.00" fill="#000000">_layout</text>
</g>
<!-- PassengersController -->
<g id="node7" class="node">
<title>PassengersController</title>
<path fill="none" stroke="#000000" d="M222,-.5C222,-.5 332.9795,-.5 332.9795,-.5 338.9795,-.5 344.9795,-6.5 344.9795,-12.5 344.9795,-12.5 344.9795,-80.5 344.9795,-80.5 344.9795,-86.5 338.9795,-92.5 332.9795,-92.5 332.9795,-92.5 222,-92.5 222,-92.5 216,-92.5 210,-86.5 210,-80.5 210,-80.5 210,-12.5 210,-12.5 210,-6.5 216,-.5 222,-.5"/>
<text text-anchor="middle" x="277.4897" y="-77.3" font-family="Times,serif" font-size="14.00" fill="#000000">PassengersController</text>
<polyline fill="none" stroke="#000000" points="210,-70.5 344.9795,-70.5 "/>
<polyline fill="none" stroke="#000000" points="210,-46.5 344.9795,-46.5 "/>
<polyline fill="none" stroke="#000000" points="210,-22.5 344.9795,-22.5 "/>
<text text-anchor="start" x="218" y="-7.3" font-family="Times,serif" font-size="14.00" fill="#000000">_layout</text>
</g>
<!-- ProfilesController -->
<g id="node8" class="node">
<title>ProfilesController</title>
<path fill="none" stroke="#000000" d="M12,-165.5C12,-165.5 104.3311,-165.5 104.3311,-165.5 110.3311,-165.5 116.3311,-171.5 116.3311,-177.5 116.3311,-177.5 116.3311,-313.5 116.3311,-313.5 116.3311,-319.5 110.3311,-325.5 104.3311,-325.5 104.3311,-325.5 12,-325.5 12,-325.5 6,-325.5 0,-319.5 0,-313.5 0,-313.5 0,-177.5 0,-177.5 0,-171.5 6,-165.5 12,-165.5"/>
<text text-anchor="middle" x="58.1655" y="-310.3" font-family="Times,serif" font-size="14.00" fill="#000000">ProfilesController</text>
<polyline fill="none" stroke="#000000" points="0,-303.5 116.3311,-303.5 "/>
<text text-anchor="start" x="8" y="-288.3" font-family="Times,serif" font-size="14.00" fill="#000000">create</text>
<text text-anchor="start" x="8" y="-274.3" font-family="Times,serif" font-size="14.00" fill="#000000">edit</text>
<text text-anchor="start" x="8" y="-260.3" font-family="Times,serif" font-size="14.00" fill="#000000">new</text>
<text text-anchor="start" x="8" y="-246.3" font-family="Times,serif" font-size="14.00" fill="#000000">show</text>
<text text-anchor="start" x="8" y="-232.3" font-family="Times,serif" font-size="14.00" fill="#000000">update</text>
<polyline fill="none" stroke="#000000" points="0,-225.5 116.3311,-225.5 "/>
<polyline fill="none" stroke="#000000" points="0,-201.5 116.3311,-201.5 "/>
<text text-anchor="start" x="8" y="-186.3" font-family="Times,serif" font-size="14.00" fill="#000000">_layout</text>
<text text-anchor="start" x="8" y="-172.3" font-family="Times,serif" font-size="14.00" fill="#000000">profile_params</text>
</g>
<!-- PuddlesController -->
<g id="node9" class="node">
<title>PuddlesController</title>
<path fill="none" stroke="#000000" d="M162,-120.5C162,-120.5 255.8828,-120.5 255.8828,-120.5 261.8828,-120.5 267.8828,-126.5 267.8828,-132.5 267.8828,-132.5 267.8828,-310.5 267.8828,-310.5 267.8828,-316.5 261.8828,-322.5 255.8828,-322.5 255.8828,-322.5 162,-322.5 162,-322.5 156,-322.5 150,-316.5 150,-310.5 150,-310.5 150,-132.5 150,-132.5 150,-126.5 156,-120.5 162,-120.5"/>
<text text-anchor="middle" x="208.9414" y="-307.3" font-family="Times,serif" font-size="14.00" fill="#000000">PuddlesController</text>
<polyline fill="none" stroke="#000000" points="150,-300.5 267.8828,-300.5 "/>
<text text-anchor="start" x="158" y="-285.3" font-family="Times,serif" font-size="14.00" fill="#000000">update</text>
<text text-anchor="start" x="158" y="-271.3" font-family="Times,serif" font-size="14.00" fill="#000000">create</text>
<text text-anchor="start" x="158" y="-257.3" font-family="Times,serif" font-size="14.00" fill="#000000">destroy</text>
<text text-anchor="start" x="158" y="-243.3" font-family="Times,serif" font-size="14.00" fill="#000000">edit</text>
<text text-anchor="start" x="158" y="-229.3" font-family="Times,serif" font-size="14.00" fill="#000000">index</text>
<text text-anchor="start" x="158" y="-215.3" font-family="Times,serif" font-size="14.00" fill="#000000">new</text>
<text text-anchor="start" x="158" y="-201.3" font-family="Times,serif" font-size="14.00" fill="#000000">show</text>
<text text-anchor="start" x="158" y="-187.3" font-family="Times,serif" font-size="14.00" fill="#000000">add_passenger</text>
<polyline fill="none" stroke="#000000" points="150,-180.5 267.8828,-180.5 "/>
<polyline fill="none" stroke="#000000" points="150,-156.5 267.8828,-156.5 "/>
<text text-anchor="start" x="158" y="-141.3" font-family="Times,serif" font-size="14.00" fill="#000000">_layout</text>
<text text-anchor="start" x="158" y="-127.3" font-family="Times,serif" font-size="14.00" fill="#000000">puddle_params</text>
</g>
<!-- SessionsController -->
<g id="node10" class="node">
<title>SessionsController</title>
<path fill="none" stroke="#000000" d="M12,-15.5C12,-15.5 109.7793,-15.5 109.7793,-15.5 115.7793,-15.5 121.7793,-21.5 121.7793,-27.5 121.7793,-27.5 121.7793,-121.5 121.7793,-121.5 121.7793,-127.5 115.7793,-133.5 109.7793,-133.5 109.7793,-133.5 12,-133.5 12,-133.5 6,-133.5 0,-127.5 0,-121.5 0,-121.5 0,-27.5 0,-27.5 0,-21.5 6,-15.5 12,-15.5"/>
<text text-anchor="middle" x="60.8896" y="-118.3" font-family="Times,serif" font-size="14.00" fill="#000000">SessionsController</text>
<polyline fill="none" stroke="#000000" points="0,-111.5 121.7793,-111.5 "/>
<text text-anchor="start" x="8" y="-96.3" font-family="Times,serif" font-size="14.00" fill="#000000">create</text>
<text text-anchor="start" x="8" y="-82.3" font-family="Times,serif" font-size="14.00" fill="#000000">destroy</text>
<text text-anchor="start" x="8" y="-68.3" font-family="Times,serif" font-size="14.00" fill="#000000">new</text>
<polyline fill="none" stroke="#000000" points="0,-61.5 121.7793,-61.5 "/>
<polyline fill="none" stroke="#000000" points="0,-37.5 121.7793,-37.5 "/>
<text text-anchor="start" x="8" y="-22.3" font-family="Times,serif" font-size="14.00" fill="#000000">_layout</text>
</g>
<!-- SiteController -->
<g id="node11" class="node">
<title>SiteController</title>
<path fill="none" stroke="#000000" d="M492,-270.5C492,-270.5 563.3242,-270.5 563.3242,-270.5 569.3242,-270.5 575.3242,-276.5 575.3242,-282.5 575.3242,-282.5 575.3242,-348.5 575.3242,-348.5 575.3242,-354.5 569.3242,-360.5 563.3242,-360.5 563.3242,-360.5 492,-360.5 492,-360.5 486,-360.5 480,-354.5 480,-348.5 480,-348.5 480,-282.5 480,-282.5 480,-276.5 486,-270.5 492,-270.5"/>
<text text-anchor="middle" x="527.6621" y="-345.3" font-family="Times,serif" font-size="14.00" fill="#000000">SiteController</text>
<polyline fill="none" stroke="#000000" points="480,-338.5 575.3242,-338.5 "/>
<text text-anchor="start" x="488" y="-323.3" font-family="Times,serif" font-size="14.00" fill="#000000">index</text>
<polyline fill="none" stroke="#000000" points="480,-316.5 575.3242,-316.5 "/>
<polyline fill="none" stroke="#000000" points="480,-292.5 575.3242,-292.5 "/>
<text text-anchor="start" x="488" y="-277.3" font-family="Times,serif" font-size="14.00" fill="#000000">_layout</text>
</g>
<!-- UsersController -->
<g id="node12" class="node">
<title>UsersController</title>
<path fill="none" stroke="#000000" d="M312,-135.5C312,-135.5 393.4277,-135.5 393.4277,-135.5 399.4277,-135.5 405.4277,-141.5 405.4277,-147.5 405.4277,-147.5 405.4277,-311.5 405.4277,-311.5 405.4277,-317.5 399.4277,-323.5 393.4277,-323.5 393.4277,-323.5 312,-323.5 312,-323.5 306,-323.5 300,-317.5 300,-311.5 300,-311.5 300,-147.5 300,-147.5 300,-141.5 306,-135.5 312,-135.5"/>
<text text-anchor="middle" x="352.7139" y="-308.3" font-family="Times,serif" font-size="14.00" fill="#000000">UsersController</text>
<polyline fill="none" stroke="#000000" points="300,-301.5 405.4277,-301.5 "/>
<text text-anchor="start" x="308" y="-286.3" font-family="Times,serif" font-size="14.00" fill="#000000">index</text>
<text text-anchor="start" x="308" y="-272.3" font-family="Times,serif" font-size="14.00" fill="#000000">destroy</text>
<text text-anchor="start" x="308" y="-258.3" font-family="Times,serif" font-size="14.00" fill="#000000">edit</text>
<text text-anchor="start" x="308" y="-244.3" font-family="Times,serif" font-size="14.00" fill="#000000">create</text>
<text text-anchor="start" x="308" y="-230.3" font-family="Times,serif" font-size="14.00" fill="#000000">new</text>
<text text-anchor="start" x="308" y="-216.3" font-family="Times,serif" font-size="14.00" fill="#000000">show</text>
<text text-anchor="start" x="308" y="-202.3" font-family="Times,serif" font-size="14.00" fill="#000000">update</text>
<polyline fill="none" stroke="#000000" points="300,-195.5 405.4277,-195.5 "/>
<polyline fill="none" stroke="#000000" points="300,-171.5 405.4277,-171.5 "/>
<text text-anchor="start" x="308" y="-156.3" font-family="Times,serif" font-size="14.00" fill="#000000">_layout</text>
<text text-anchor="start" x="308" y="-142.3" font-family="Times,serif" font-size="14.00" fill="#000000">user_params</text>
</g>
</g>
</svg>
