<?xml version="1.0" encoding="UTF-8" standalone="no"?>
<!DOCTYPE svg PUBLIC "-//W3C//DTD SVG 1.1//EN"
 "http://www.w3.org/Graphics/SVG/1.1/DTD/svg11.dtd">
<!-- Generated by graphviz version 2.40.1 (20161225.0304)
 -->
<!-- Title: controllers_diagram Pages: 1 -->
<svg width="604pt" height="573pt"
 viewBox="0.00 0.00 603.53 573.00" xmlns="http://www.w3.org/2000/svg" xmlns:xlink="http://www.w3.org/1999/xlink">
<g id="graph0" class="graph" transform="scale(1 1) rotate(0) translate(4 569)">
<title>controllers_diagram</title>
<polygon fill="transparent" stroke="transparent" points="-4,4 -4,-569 599.5313,-569 599.5313,4 -4,4"/>
<!-- _diagram_info -->
<g id="node1" class="node">
<title>_diagram_info</title>
<text text-anchor="start" x="23" y="-103.6" font-family="Times,serif" font-size="13.00" fill="#000000">Controllers diagram</text>
<text text-anchor="start" x="23" y="-90.6" font-family="Times,serif" font-size="13.00" fill="#000000">Date: Jan 11 2017 &#45; 13:18</text>
<text text-anchor="start" x="23" y="-77.6" font-family="Times,serif" font-size="13.00" fill="#000000">Migration version: 0</text>
<text text-anchor="start" x="23" y="-64.6" font-family="Times,serif" font-size="13.00" fill="#000000">Generated by RailRoady 1.5.2</text>
<text text-anchor="start" x="23" y="-51.6" font-family="Times,serif" font-size="13.00" fill="#000000">http://railroady.prestonlee.com</text>
</g>
<!-- ApplicationController -->
<g id="node2" class="node">
<title>ApplicationController</title>
<path fill="none" stroke="#000000" d="M57,-435.5C57,-435.5 172.6416,-435.5 172.6416,-435.5 178.6416,-435.5 184.6416,-441.5 184.6416,-447.5 184.6416,-447.5 184.6416,-541.5 184.6416,-541.5 184.6416,-547.5 178.6416,-553.5 172.6416,-553.5 172.6416,-553.5 57,-553.5 57,-553.5 51,-553.5 45,-547.5 45,-541.5 45,-541.5 45,-447.5 45,-447.5 45,-441.5 51,-435.5 57,-435.5"/>
<text text-anchor="middle" x="114.8208" y="-538.3" font-family="Times,serif" font-size="14.00" fill="#000000">ApplicationController</text>
<polyline fill="none" stroke="#000000" points="45,-531.5 184.6416,-531.5 "/>
<text text-anchor="start" x="53" y="-516.3" font-family="Times,serif" font-size="14.00" fill="#000000">current_user</text>
<polyline fill="none" stroke="#000000" points="45,-509.5 184.6416,-509.5 "/>
<polyline fill="none" stroke="#000000" points="45,-485.5 184.6416,-485.5 "/>
<text text-anchor="start" x="53" y="-470.3" font-family="Times,serif" font-size="14.00" fill="#000000">_layout</text>
<text text-anchor="start" x="53" y="-456.3" font-family="Times,serif" font-size="14.00" fill="#000000">authorize_user</text>
<text text-anchor="start" x="53" y="-442.3" font-family="Times,serif" font-size="14.00" fill="#000000">logged_in?</text>
</g>
<!-- CarsController -->
<g id="node3" class="node">
<title>CarsController</title>
<path fill="none" stroke="#000000" d="M372,-390.5C372,-390.5 447.207,-390.5 447.207,-390.5 453.207,-390.5 459.207,-396.5 459.207,-402.5 459.207,-402.5 459.207,-552.5 459.207,-552.5 459.207,-558.5 453.207,-564.5 447.207,-564.5 447.207,-564.5 372,-564.5 372,-564.5 366,-564.5 360,-558.5 360,-552.5 360,-552.5 360,-402.5 360,-402.5 360,-396.5 366,-390.5 372,-390.5"/>
<text text-anchor="middle" x="409.6035" y="-549.3" font-family="Times,serif" font-size="14.00" fill="#000000">CarsController</text>
<polyline fill="none" stroke="#000000" points="360,-542.5 459.207,-542.5 "/>
<text text-anchor="start" x="368" y="-527.3" font-family="Times,serif" font-size="14.00" fill="#000000">create</text>
<text text-anchor="start" x="368" y="-513.3" font-family="Times,serif" font-size="14.00" fill="#000000">edit</text>
<text text-anchor="start" x="368" y="-499.3" font-family="Times,serif" font-size="14.00" fill="#000000">index</text>
<text text-anchor="start" x="368" y="-485.3" font-family="Times,serif" font-size="14.00" fill="#000000">new</text>
<text text-anchor="start" x="368" y="-471.3" font-family="Times,serif" font-size="14.00" fill="#000000">show</text>
<text text-anchor="start" x="368" y="-457.3" font-family="Times,serif" font-size="14.00" fill="#000000">update</text>
<polyline fill="none" stroke="#000000" points="360,-450.5 459.207,-450.5 "/>
<polyline fill="none" stroke="#000000" points="360,-426.5 459.207,-426.5 "/>
<text text-anchor="start" x="368" y="-411.3" font-family="Times,serif" font-size="14.00" fill="#000000">_layout</text>
<text text-anchor="start" x="368" y="-397.3" font-family="Times,serif" font-size="14.00" fill="#000000">car_params</text>
</g>
<!-- CompaniesController -->
<g id="node4" class="node">
<title>CompaniesController</title>
<path fill="none" stroke="#000000" d="M462,-165.5C462,-165.5 574.5381,-165.5 574.5381,-165.5 580.5381,-165.5 586.5381,-171.5 586.5381,-177.5 586.5381,-177.5 586.5381,-245.5 586.5381,-245.5 586.5381,-251.5 580.5381,-257.5 574.5381,-257.5 574.5381,-257.5 462,-257.5 462,-257.5 456,-257.5 450,-251.5 450,-245.5 450,-245.5 450,-177.5 450,-177.5 450,-171.5 456,-165.5 462,-165.5"/>
<text text-anchor="middle" x="518.269" y="-242.3" font-family="Times,serif" font-size="14.00" fill="#000000">CompaniesController</text>
<polyline fill="none" stroke="#000000" points="450,-235.5 586.5381,-235.5 "/>
<polyline fill="none" stroke="#000000" points="450,-211.5 586.5381,-211.5 "/>
<polyline fill="none" stroke="#000000" points="450,-187.5 586.5381,-187.5 "/>
<text text-anchor="start" x="458" y="-172.3" font-family="Times,serif" font-size="14.00" fill="#000000">_layout</text>
</g>
<!-- DriversController -->
<g id="node5" class="node">
<title>DriversController</title>
<path fill="none" stroke="#000000" d="M492,-.5C492,-.5 583.5313,-.5 583.5313,-.5 589.5313,-.5 595.5313,-6.5 595.5313,-12.5 595.5313,-12.5 595.5313,-80.5 595.5313,-80.5 595.5313,-86.5 589.5313,-92.5 583.5313,-92.5 583.5313,-92.5 492,-92.5 492,-92.5 486,-92.5 480,-86.5 480,-80.5 480,-80.5 480,-12.5 480,-12.5 480,-6.5 486,-.5 492,-.5"/>
<text text-anchor="middle" x="537.7656" y="-77.3" font-family="Times,serif" font-size="14.00" fill="#000000">DriversController</text>
<polyline fill="none" stroke="#000000" points="480,-70.5 595.5313,-70.5 "/>
<polyline fill="none" stroke="#000000" points="480,-46.5 595.5313,-46.5 "/>
<polyline fill="none" stroke="#000000" points="480,-22.5 595.5313,-22.5 "/>
<text text-anchor="start" x="488" y="-7.3" font-family="Times,serif" font-size="14.00" fill="#000000">_layout</text>
</g>
<!-- LocationsController -->
<g id="node6" class="node">
<title>LocationsController</title>
<path fill="none" stroke="#000000" d="M12,-165.5C12,-165.5 116.752,-165.5 116.752,-165.5 122.752,-165.5 128.752,-171.5 128.752,-177.5 128.752,-177.5 128.752,-245.5 128.752,-245.5 128.752,-251.5 122.752,-257.5 116.752,-257.5 116.752,-257.5 12,-257.5 12,-257.5 6,-257.5 0,-251.5 0,-245.5 0,-245.5 0,-177.5 0,-177.5 0,-171.5 6,-165.5 12,-165.5"/>
<text text-anchor="middle" x="64.376" y="-242.3" font-family="Times,serif" font-size="14.00" fill="#000000">LocationsController</text>
<polyline fill="none" stroke="#000000" points="0,-235.5 128.752,-235.5 "/>
<polyline fill="none" stroke="#000000" points="0,-211.5 128.752,-211.5 "/>
<polyline fill="none" stroke="#000000" points="0,-187.5 128.752,-187.5 "/>
<text text-anchor="start" x="8" y="-172.3" font-family="Times,serif" font-size="14.00" fill="#000000">_layout</text>
</g>
<!-- PassengersController -->
<g id="node7" class="node">
<title>PassengersController</title>
<path fill="none" stroke="#000000" d="M327,-45.5C327,-45.5 437.9795,-45.5 437.9795,-45.5 443.9795,-45.5 449.9795,-51.5 449.9795,-57.5 449.9795,-57.5 449.9795,-125.5 449.9795,-125.5 449.9795,-131.5 443.9795,-137.5 437.9795,-137.5 437.9795,-137.5 327,-137.5 327,-137.5 321,-137.5 315,-131.5 315,-125.5 315,-125.5 315,-57.5 315,-57.5 315,-51.5 321,-45.5 327,-45.5"/>
<text text-anchor="middle" x="382.4897" y="-122.3" font-family="Times,serif" font-size="14.00" fill="#000000">PassengersController</text>
<polyline fill="none" stroke="#000000" points="315,-115.5 449.9795,-115.5 "/>
<polyline fill="none" stroke="#000000" points="315,-91.5 449.9795,-91.5 "/>
<polyline fill="none" stroke="#000000" points="315,-67.5 449.9795,-67.5 "/>
<text text-anchor="start" x="323" y="-52.3" font-family="Times,serif" font-size="14.00" fill="#000000">_layout</text>
</g>
<!-- ProfilesController -->
<g id="node8" class="node">
<title>ProfilesController</title>
<path fill="none" stroke="#000000" d="M222,-390.5C222,-390.5 314.3311,-390.5 314.3311,-390.5 320.3311,-390.5 326.3311,-396.5 326.3311,-402.5 326.3311,-402.5 326.3311,-538.5 326.3311,-538.5 326.3311,-544.5 320.3311,-550.5 314.3311,-550.5 314.3311,-550.5 222,-550.5 222,-550.5 216,-550.5 210,-544.5 210,-538.5 210,-538.5 210,-402.5 210,-402.5 210,-396.5 216,-390.5 222,-390.5"/>
<text text-anchor="middle" x="268.1655" y="-535.3" font-family="Times,serif" font-size="14.00" fill="#000000">ProfilesController</text>
<polyline fill="none" stroke="#000000" points="210,-528.5 326.3311,-528.5 "/>
<text text-anchor="start" x="218" y="-513.3" font-family="Times,serif" font-size="14.00" fill="#000000">create</text>
<text text-anchor="start" x="218" y="-499.3" font-family="Times,serif" font-size="14.00" fill="#000000">edit</text>
<text text-anchor="start" x="218" y="-485.3" font-family="Times,serif" font-size="14.00" fill="#000000">new</text>
<text text-anchor="start" x="218" y="-471.3" font-family="Times,serif" font-size="14.00" fill="#000000">show</text>
<text text-anchor="start" x="218" y="-457.3" font-family="Times,serif" font-size="14.00" fill="#000000">update</text>
<polyline fill="none" stroke="#000000" points="210,-450.5 326.3311,-450.5 "/>
<polyline fill="none" stroke="#000000" points="210,-426.5 326.3311,-426.5 "/>
<text text-anchor="start" x="218" y="-411.3" font-family="Times,serif" font-size="14.00" fill="#000000">_layout</text>
<text text-anchor="start" x="218" y="-397.3" font-family="Times,serif" font-size="14.00" fill="#000000">profile_params</text>
</g>
<!-- PuddlesController -->
<g id="node9" class="node">
<title>PuddlesController</title>
<path fill="none" stroke="#000000" d="M177,-150.5C177,-150.5 270.8828,-150.5 270.8828,-150.5 276.8828,-150.5 282.8828,-156.5 282.8828,-162.5 282.8828,-162.5 282.8828,-340.5 282.8828,-340.5 282.8828,-346.5 276.8828,-352.5 270.8828,-352.5 270.8828,-352.5 177,-352.5 177,-352.5 171,-352.5 165,-346.5 165,-340.5 165,-340.5 165,-162.5 165,-162.5 165,-156.5 171,-150.5 177,-150.5"/>
<text text-anchor="middle" x="223.9414" y="-337.3" font-family="Times,serif" font-size="14.00" fill="#000000">PuddlesController</text>
<polyline fill="none" stroke="#000000" points="165,-330.5 282.8828,-330.5 "/>
<text text-anchor="start" x="173" y="-315.3" font-family="Times,serif" font-size="14.00" fill="#000000">update</text>
<text text-anchor="start" x="173" y="-301.3" font-family="Times,serif" font-size="14.00" fill="#000000">create</text>
<text text-anchor="start" x="173" y="-287.3" font-family="Times,serif" font-size="14.00" fill="#000000">destroy</text>
<text text-anchor="start" x="173" y="-273.3" font-family="Times,serif" font-size="14.00" fill="#000000">edit</text>
<text text-anchor="start" x="173" y="-259.3" font-family="Times,serif" font-size="14.00" fill="#000000">index</text>
<text text-anchor="start" x="173" y="-245.3" font-family="Times,serif" font-size="14.00" fill="#000000">new</text>
<text text-anchor="start" x="173" y="-231.3" font-family="Times,serif" font-size="14.00" fill="#000000">show</text>
<text text-anchor="start" x="173" y="-217.3" font-family="Times,serif" font-size="14.00" fill="#000000">add_passenger</text>
<polyline fill="none" stroke="#000000" points="165,-210.5 282.8828,-210.5 "/>
<polyline fill="none" stroke="#000000" points="165,-186.5 282.8828,-186.5 "/>
<text text-anchor="start" x="173" y="-171.3" font-family="Times,serif" font-size="14.00" fill="#000000">_layout</text>
<text text-anchor="start" x="173" y="-157.3" font-family="Times,serif" font-size="14.00" fill="#000000">puddle_params</text>
</g>
<!-- SessionsController -->
<g id="node10" class="node">
<title>SessionsController</title>
<path fill="none" stroke="#000000" d="M27,-285.5C27,-285.5 124.7793,-285.5 124.7793,-285.5 130.7793,-285.5 136.7793,-291.5 136.7793,-297.5 136.7793,-297.5 136.7793,-391.5 136.7793,-391.5 136.7793,-397.5 130.7793,-403.5 124.7793,-403.5 124.7793,-403.5 27,-403.5 27,-403.5 21,-403.5 15,-397.5 15,-391.5 15,-391.5 15,-297.5 15,-297.5 15,-291.5 21,-285.5 27,-285.5"/>
<text text-anchor="middle" x="75.8896" y="-388.3" font-family="Times,serif" font-size="14.00" fill="#000000">SessionsController</text>
<polyline fill="none" stroke="#000000" points="15,-381.5 136.7793,-381.5 "/>
<text text-anchor="start" x="23" y="-366.3" font-family="Times,serif" font-size="14.00" fill="#000000">create</text>
<text text-anchor="start" x="23" y="-352.3" font-family="Times,serif" font-size="14.00" fill="#000000">destroy</text>
<text text-anchor="start" x="23" y="-338.3" font-family="Times,serif" font-size="14.00" fill="#000000">new</text>
<polyline fill="none" stroke="#000000" points="15,-331.5 136.7793,-331.5 "/>
<polyline fill="none" stroke="#000000" points="15,-307.5 136.7793,-307.5 "/>
<text text-anchor="start" x="23" y="-292.3" font-family="Times,serif" font-size="14.00" fill="#000000">_layout</text>
</g>
<!-- SiteController -->
<g id="node11" class="node">
<title>SiteController</title>
<path fill="none" stroke="#000000" d="M507,-285.5C507,-285.5 578.3242,-285.5 578.3242,-285.5 584.3242,-285.5 590.3242,-291.5 590.3242,-297.5 590.3242,-297.5 590.3242,-363.5 590.3242,-363.5 590.3242,-369.5 584.3242,-375.5 578.3242,-375.5 578.3242,-375.5 507,-375.5 507,-375.5 501,-375.5 495,-369.5 495,-363.5 495,-363.5 495,-297.5 495,-297.5 495,-291.5 501,-285.5 507,-285.5"/>
<text text-anchor="middle" x="542.6621" y="-360.3" font-family="Times,serif" font-size="14.00" fill="#000000">SiteController</text>
<polyline fill="none" stroke="#000000" points="495,-353.5 590.3242,-353.5 "/>
<text text-anchor="start" x="503" y="-338.3" font-family="Times,serif" font-size="14.00" fill="#000000">index</text>
<polyline fill="none" stroke="#000000" points="495,-331.5 590.3242,-331.5 "/>
<polyline fill="none" stroke="#000000" points="495,-307.5 590.3242,-307.5 "/>
<text text-anchor="start" x="503" y="-292.3" font-family="Times,serif" font-size="14.00" fill="#000000">_layout</text>
</g>
<!-- UsersController -->
<g id="node12" class="node">
<title>UsersController</title>
<path fill="none" stroke="#000000" d="M327,-165.5C327,-165.5 408.4277,-165.5 408.4277,-165.5 414.4277,-165.5 420.4277,-171.5 420.4277,-177.5 420.4277,-177.5 420.4277,-341.5 420.4277,-341.5 420.4277,-347.5 414.4277,-353.5 408.4277,-353.5 408.4277,-353.5 327,-353.5 327,-353.5 321,-353.5 315,-347.5 315,-341.5 315,-341.5 315,-177.5 315,-177.5 315,-171.5 321,-165.5 327,-165.5"/>
<text text-anchor="middle" x="367.7139" y="-338.3" font-family="Times,serif" font-size="14.00" fill="#000000">UsersController</text>
<polyline fill="none" stroke="#000000" points="315,-331.5 420.4277,-331.5 "/>
<text text-anchor="start" x="323" y="-316.3" font-family="Times,serif" font-size="14.00" fill="#000000">index</text>
<text text-anchor="start" x="323" y="-302.3" font-family="Times,serif" font-size="14.00" fill="#000000">destroy</text>
<text text-anchor="start" x="323" y="-288.3" font-family="Times,serif" font-size="14.00" fill="#000000">edit</text>
<text text-anchor="start" x="323" y="-274.3" font-family="Times,serif" font-size="14.00" fill="#000000">create</text>
<text text-anchor="start" x="323" y="-260.3" font-family="Times,serif" font-size="14.00" fill="#000000">new</text>
<text text-anchor="start" x="323" y="-246.3" font-family="Times,serif" font-size="14.00" fill="#000000">show</text>
<text text-anchor="start" x="323" y="-232.3" font-family="Times,serif" font-size="14.00" fill="#000000">update</text>
<polyline fill="none" stroke="#000000" points="315,-225.5 420.4277,-225.5 "/>
<polyline fill="none" stroke="#000000" points="315,-201.5 420.4277,-201.5 "/>
<text text-anchor="start" x="323" y="-186.3" font-family="Times,serif" font-size="14.00" fill="#000000">_layout</text>
<text text-anchor="start" x="323" y="-172.3" font-family="Times,serif" font-size="14.00" fill="#000000">user_params</text>
</g>
</g>
</svg>
