<?xml version="1.0" encoding="UTF-8" standalone="no"?>
<!DOCTYPE svg PUBLIC "-//W3C//DTD SVG 1.1//EN"
 "http://www.w3.org/Graphics/SVG/1.1/DTD/svg11.dtd">
<!-- Generated by graphviz version 2.40.1 (20161225.0304)
 -->
<!-- Title: controllers_diagram Pages: 1 -->
<svg width="462pt" height="556pt"
 viewBox="0.00 0.00 462.33 556.00" xmlns="http://www.w3.org/2000/svg" xmlns:xlink="http://www.w3.org/1999/xlink">
<g id="graph0" class="graph" transform="scale(1 1) rotate(0) translate(4 552)">
<title>controllers_diagram</title>
<polygon fill="transparent" stroke="transparent" points="-4,4 -4,-552 458.3311,-552 458.3311,4 -4,4"/>
<!-- _diagram_info -->
<g id="node1" class="node">
<title>_diagram_info</title>
<text text-anchor="start" x="47" y="-253.6" font-family="Times,serif" font-size="13.00" fill="#000000">Controllers diagram</text>
<text text-anchor="start" x="47" y="-240.6" font-family="Times,serif" font-size="13.00" fill="#000000">Date: Jan 09 2017 &#45; 20:21</text>
<text text-anchor="start" x="47" y="-227.6" font-family="Times,serif" font-size="13.00" fill="#000000">Migration version: 20170109213403</text>
<text text-anchor="start" x="47" y="-214.6" font-family="Times,serif" font-size="13.00" fill="#000000">Generated by RailRoady 1.5.2</text>
<text text-anchor="start" x="47" y="-201.6" font-family="Times,serif" font-size="13.00" fill="#000000">http://railroady.prestonlee.com</text>
</g>
<!-- ApplicationController -->
<g id="node2" class="node">
<title>ApplicationController</title>
<path fill="none" stroke="#000000" d="M233,-299.5C233,-299.5 348.6416,-299.5 348.6416,-299.5 354.6416,-299.5 360.6416,-305.5 360.6416,-311.5 360.6416,-311.5 360.6416,-379.5 360.6416,-379.5 360.6416,-385.5 354.6416,-391.5 348.6416,-391.5 348.6416,-391.5 233,-391.5 233,-391.5 227,-391.5 221,-385.5 221,-379.5 221,-379.5 221,-311.5 221,-311.5 221,-305.5 227,-299.5 233,-299.5"/>
<text text-anchor="middle" x="290.8208" y="-376.3" font-family="Times,serif" font-size="14.00" fill="#000000">ApplicationController</text>
<polyline fill="none" stroke="#000000" points="221,-369.5 360.6416,-369.5 "/>
<polyline fill="none" stroke="#000000" points="221,-345.5 360.6416,-345.5 "/>
<polyline fill="none" stroke="#000000" points="221,-321.5 360.6416,-321.5 "/>
<text text-anchor="start" x="229" y="-306.3" font-family="Times,serif" font-size="14.00" fill="#000000">_layout</text>
</g>
<!-- CarsController -->
<g id="node3" class="node">
<title>CarsController</title>
<path fill="none" stroke="#000000" d="M298,-.5C298,-.5 373.207,-.5 373.207,-.5 379.207,-.5 385.207,-6.5 385.207,-12.5 385.207,-12.5 385.207,-80.5 385.207,-80.5 385.207,-86.5 379.207,-92.5 373.207,-92.5 373.207,-92.5 298,-92.5 298,-92.5 292,-92.5 286,-86.5 286,-80.5 286,-80.5 286,-12.5 286,-12.5 286,-6.5 292,-.5 298,-.5"/>
<text text-anchor="middle" x="335.6035" y="-77.3" font-family="Times,serif" font-size="14.00" fill="#000000">CarsController</text>
<polyline fill="none" stroke="#000000" points="286,-70.5 385.207,-70.5 "/>
<polyline fill="none" stroke="#000000" points="286,-46.5 385.207,-46.5 "/>
<polyline fill="none" stroke="#000000" points="286,-22.5 385.207,-22.5 "/>
<text text-anchor="start" x="294" y="-7.3" font-family="Times,serif" font-size="14.00" fill="#000000">_layout</text>
</g>
<!-- CompaniesController -->
<g id="node4" class="node">
<title>CompaniesController</title>
<path fill="none" stroke="#000000" d="M64,-338.5C64,-338.5 176.5381,-338.5 176.5381,-338.5 182.5381,-338.5 188.5381,-344.5 188.5381,-350.5 188.5381,-350.5 188.5381,-418.5 188.5381,-418.5 188.5381,-424.5 182.5381,-430.5 176.5381,-430.5 176.5381,-430.5 64,-430.5 64,-430.5 58,-430.5 52,-424.5 52,-418.5 52,-418.5 52,-350.5 52,-350.5 52,-344.5 58,-338.5 64,-338.5"/>
<text text-anchor="middle" x="120.269" y="-415.3" font-family="Times,serif" font-size="14.00" fill="#000000">CompaniesController</text>
<polyline fill="none" stroke="#000000" points="52,-408.5 188.5381,-408.5 "/>
<polyline fill="none" stroke="#000000" points="52,-384.5 188.5381,-384.5 "/>
<polyline fill="none" stroke="#000000" points="52,-360.5 188.5381,-360.5 "/>
<text text-anchor="start" x="60" y="-345.3" font-family="Times,serif" font-size="14.00" fill="#000000">_layout</text>
</g>
<!-- DriversController -->
<g id="node5" class="node">
<title>DriversController</title>
<path fill="none" stroke="#000000" d="M64,-455.5C64,-455.5 155.5313,-455.5 155.5313,-455.5 161.5313,-455.5 167.5313,-461.5 167.5313,-467.5 167.5313,-467.5 167.5313,-535.5 167.5313,-535.5 167.5313,-541.5 161.5313,-547.5 155.5313,-547.5 155.5313,-547.5 64,-547.5 64,-547.5 58,-547.5 52,-541.5 52,-535.5 52,-535.5 52,-467.5 52,-467.5 52,-461.5 58,-455.5 64,-455.5"/>
<text text-anchor="middle" x="109.7656" y="-532.3" font-family="Times,serif" font-size="14.00" fill="#000000">DriversController</text>
<polyline fill="none" stroke="#000000" points="52,-525.5 167.5313,-525.5 "/>
<polyline fill="none" stroke="#000000" points="52,-501.5 167.5313,-501.5 "/>
<polyline fill="none" stroke="#000000" points="52,-477.5 167.5313,-477.5 "/>
<text text-anchor="start" x="60" y="-462.3" font-family="Times,serif" font-size="14.00" fill="#000000">_layout</text>
</g>
<!-- LocationsController -->
<g id="node6" class="node">
<title>LocationsController</title>
<path fill="none" stroke="#000000" d="M285,-117.5C285,-117.5 389.752,-117.5 389.752,-117.5 395.752,-117.5 401.752,-123.5 401.752,-129.5 401.752,-129.5 401.752,-197.5 401.752,-197.5 401.752,-203.5 395.752,-209.5 389.752,-209.5 389.752,-209.5 285,-209.5 285,-209.5 279,-209.5 273,-203.5 273,-197.5 273,-197.5 273,-129.5 273,-129.5 273,-123.5 279,-117.5 285,-117.5"/>
<text text-anchor="middle" x="337.376" y="-194.3" font-family="Times,serif" font-size="14.00" fill="#000000">LocationsController</text>
<polyline fill="none" stroke="#000000" points="273,-187.5 401.752,-187.5 "/>
<polyline fill="none" stroke="#000000" points="273,-163.5 401.752,-163.5 "/>
<polyline fill="none" stroke="#000000" points="273,-139.5 401.752,-139.5 "/>
<text text-anchor="start" x="281" y="-124.3" font-family="Times,serif" font-size="14.00" fill="#000000">_layout</text>
</g>
<!-- PassengersController -->
<g id="node7" class="node">
<title>PassengersController</title>
<path fill="none" stroke="#000000" d="M12,-78.5C12,-78.5 122.9795,-78.5 122.9795,-78.5 128.9795,-78.5 134.9795,-84.5 134.9795,-90.5 134.9795,-90.5 134.9795,-158.5 134.9795,-158.5 134.9795,-164.5 128.9795,-170.5 122.9795,-170.5 122.9795,-170.5 12,-170.5 12,-170.5 6,-170.5 0,-164.5 0,-158.5 0,-158.5 0,-90.5 0,-90.5 0,-84.5 6,-78.5 12,-78.5"/>
<text text-anchor="middle" x="67.4897" y="-155.3" font-family="Times,serif" font-size="14.00" fill="#000000">PassengersController</text>
<polyline fill="none" stroke="#000000" points="0,-148.5 134.9795,-148.5 "/>
<polyline fill="none" stroke="#000000" points="0,-124.5 134.9795,-124.5 "/>
<polyline fill="none" stroke="#000000" points="0,-100.5 134.9795,-100.5 "/>
<text text-anchor="start" x="8" y="-85.3" font-family="Times,serif" font-size="14.00" fill="#000000">_layout</text>
</g>
<!-- ProfilesController -->
<g id="node8" class="node">
<title>ProfilesController</title>
<path fill="none" stroke="#000000" d="M350,-416.5C350,-416.5 442.3311,-416.5 442.3311,-416.5 448.3311,-416.5 454.3311,-422.5 454.3311,-428.5 454.3311,-428.5 454.3311,-496.5 454.3311,-496.5 454.3311,-502.5 448.3311,-508.5 442.3311,-508.5 442.3311,-508.5 350,-508.5 350,-508.5 344,-508.5 338,-502.5 338,-496.5 338,-496.5 338,-428.5 338,-428.5 338,-422.5 344,-416.5 350,-416.5"/>
<text text-anchor="middle" x="396.1655" y="-493.3" font-family="Times,serif" font-size="14.00" fill="#000000">ProfilesController</text>
<polyline fill="none" stroke="#000000" points="338,-486.5 454.3311,-486.5 "/>
<polyline fill="none" stroke="#000000" points="338,-462.5 454.3311,-462.5 "/>
<polyline fill="none" stroke="#000000" points="338,-438.5 454.3311,-438.5 "/>
<text text-anchor="start" x="346" y="-423.3" font-family="Times,serif" font-size="14.00" fill="#000000">_layout</text>
</g>
<!-- PuddlesController -->
<g id="node9" class="node">
<title>PuddlesController</title>
<path fill="none" stroke="#000000" d="M207,-455.5C207,-455.5 300.8828,-455.5 300.8828,-455.5 306.8828,-455.5 312.8828,-461.5 312.8828,-467.5 312.8828,-467.5 312.8828,-535.5 312.8828,-535.5 312.8828,-541.5 306.8828,-547.5 300.8828,-547.5 300.8828,-547.5 207,-547.5 207,-547.5 201,-547.5 195,-541.5 195,-535.5 195,-535.5 195,-467.5 195,-467.5 195,-461.5 201,-455.5 207,-455.5"/>
<text text-anchor="middle" x="253.9414" y="-532.3" font-family="Times,serif" font-size="14.00" fill="#000000">PuddlesController</text>
<polyline fill="none" stroke="#000000" points="195,-525.5 312.8828,-525.5 "/>
<polyline fill="none" stroke="#000000" points="195,-501.5 312.8828,-501.5 "/>
<polyline fill="none" stroke="#000000" points="195,-477.5 312.8828,-477.5 "/>
<text text-anchor="start" x="203" y="-462.3" font-family="Times,serif" font-size="14.00" fill="#000000">_layout</text>
</g>
<!-- UsersController -->
<g id="node10" class="node">
<title>UsersController</title>
<path fill="none" stroke="#000000" d="M168,-.5C168,-.5 249.4277,-.5 249.4277,-.5 255.4277,-.5 261.4277,-6.5 261.4277,-12.5 261.4277,-12.5 261.4277,-80.5 261.4277,-80.5 261.4277,-86.5 255.4277,-92.5 249.4277,-92.5 249.4277,-92.5 168,-92.5 168,-92.5 162,-92.5 156,-86.5 156,-80.5 156,-80.5 156,-12.5 156,-12.5 156,-6.5 162,-.5 168,-.5"/>
<text text-anchor="middle" x="208.7139" y="-77.3" font-family="Times,serif" font-size="14.00" fill="#000000">UsersController</text>
<polyline fill="none" stroke="#000000" points="156,-70.5 261.4277,-70.5 "/>
<polyline fill="none" stroke="#000000" points="156,-46.5 261.4277,-46.5 "/>
<polyline fill="none" stroke="#000000" points="156,-22.5 261.4277,-22.5 "/>
<text text-anchor="start" x="164" y="-7.3" font-family="Times,serif" font-size="14.00" fill="#000000">_layout</text>
</g>
</g>
</svg>
