<?xml version="1.0" encoding="UTF-8" standalone="no"?>
<!DOCTYPE svg PUBLIC "-//W3C//DTD SVG 1.1//EN"
 "http://www.w3.org/Graphics/SVG/1.1/DTD/svg11.dtd">
<!-- Generated by graphviz version 2.40.1 (20161225.0304)
 -->
<!-- Title: models_diagram Pages: 1 -->
<svg width="655pt" height="441pt"
 viewBox="0.00 0.00 655.16 441.00" xmlns="http://www.w3.org/2000/svg" xmlns:xlink="http://www.w3.org/1999/xlink">
<g id="graph0" class="graph" transform="scale(1 1) rotate(0) translate(4 437)">
<title>models_diagram</title>
<polygon fill="transparent" stroke="transparent" points="-4,4 -4,-437 651.1598,-437 651.1598,4 -4,4"/>
<!-- _diagram_info -->
<g id="node1" class="node">
<title>_diagram_info</title>
<text text-anchor="start" x="8" y="-418.6" font-family="Times,serif" font-size="13.00" fill="#000000">Models diagram</text>
<text text-anchor="start" x="8" y="-405.6" font-family="Times,serif" font-size="13.00" fill="#000000">Date: Jan 09 2017 &#45; 20:21</text>
<text text-anchor="start" x="8" y="-392.6" font-family="Times,serif" font-size="13.00" fill="#000000">Migration version: 20170109213403</text>
<text text-anchor="start" x="8" y="-379.6" font-family="Times,serif" font-size="13.00" fill="#000000">Generated by RailRoady 1.5.2</text>
<text text-anchor="start" x="8" y="-366.6" font-family="Times,serif" font-size="13.00" fill="#000000">http://railroady.prestonlee.com</text>
</g>
<!-- ApplicationRecord -->
<g id="node2" class="node">
<title>ApplicationRecord</title>
<ellipse fill="none" stroke="#000000" cx="302.6877" cy="-396.5" rx="77.2916" ry="18"/>
<text text-anchor="middle" x="302.6877" y="-392.3" font-family="Times,serif" font-size="14.00" fill="#000000">ApplicationRecord</text>
</g>
<!-- Car -->
<g id="node3" class="node">
<title>Car</title>
<ellipse fill="none" stroke="#000000" cx="303.6877" cy="-162" rx="27" ry="18"/>
<text text-anchor="middle" x="303.6877" y="-157.8" font-family="Times,serif" font-size="14.00" fill="#000000">Car</text>
</g>
<!-- Company -->
<g id="node4" class="node">
<title>Company</title>
<ellipse fill="none" stroke="#000000" cx="442.6877" cy="-396.5" rx="44.4923" ry="18"/>
<text text-anchor="middle" x="442.6877" y="-392.3" font-family="Times,serif" font-size="14.00" fill="#000000">Company</text>
</g>
<!-- Location -->
<g id="node6" class="node">
<title>Location</title>
<ellipse fill="none" stroke="#000000" cx="407.6877" cy="-306" rx="41.5766" ry="18"/>
<text text-anchor="middle" x="407.6877" y="-301.8" font-family="Times,serif" font-size="14.00" fill="#000000">Location</text>
</g>
<!-- Company&#45;&gt;Location -->
<g id="edge1" class="edge">
<title>Company&#45;&gt;Location</title>
<path fill="none" stroke="#ddd1ec" d="M432.8748,-371.1266C428.325,-359.362 422.91,-345.3603 418.2688,-333.3596"/>
<ellipse fill="none" stroke="#ddd1ec" cx="434.33" cy="-374.8894" rx="4" ry="4"/>
<polygon fill="#ddd1ec" stroke="#ddd1ec" points="418.1954,-333.1696 418.7853,-322.2195 416.3918,-328.5061 414.5883,-323.8427 414.5883,-323.8427 414.5883,-323.8427 416.3918,-328.5061 410.3912,-325.4659 418.1954,-333.1696 418.1954,-333.1696"/>
</g>
<!-- User -->
<g id="node11" class="node">
<title>User</title>
<ellipse fill="none" stroke="#000000" cx="442.6877" cy="-234" rx="27" ry="18"/>
<text text-anchor="middle" x="442.6877" y="-229.8" font-family="Times,serif" font-size="14.00" fill="#000000">User</text>
</g>
<!-- Company&#45;&gt;User -->
<g id="edge2" class="edge">
<title>Company&#45;&gt;User</title>
<path fill="none" stroke="#6c7cec" d="M451.2338,-368.8088C456.9209,-346.8875 462.6749,-315.4914 458.6877,-288 457.4106,-279.1943 455.0197,-269.8255 452.4683,-261.4067"/>
<polygon fill="#6c7cec" stroke="#6c7cec" points="451.2316,-368.8169 444.2373,-377.2626 449.9036,-373.6373 448.5757,-378.4578 448.5757,-378.4578 448.5757,-378.4578 449.9036,-373.6373 452.9141,-379.6529 451.2316,-368.8169 451.2316,-368.8169"/>
<polygon fill="#6c7cec" stroke="#6c7cec" points="452.4105,-261.2275 453.6232,-250.3289 450.8755,-256.469 449.3405,-251.7104 449.3405,-251.7104 449.3405,-251.7104 450.8755,-256.469 445.0578,-253.092 452.4105,-261.2275 452.4105,-261.2275"/>
</g>
<!-- Driver -->
<g id="node5" class="node">
<title>Driver</title>
<ellipse fill="none" stroke="#000000" cx="381.6877" cy="-162" rx="33.3752" ry="18"/>
<text text-anchor="middle" x="381.6877" y="-157.8" font-family="Times,serif" font-size="14.00" fill="#000000">Driver</text>
</g>
<!-- Puddle -->
<g id="node9" class="node">
<title>Puddle</title>
<ellipse fill="none" stroke="#000000" cx="490.6877" cy="-90" rx="34.8458" ry="18"/>
<text text-anchor="middle" x="490.6877" y="-85.8" font-family="Times,serif" font-size="14.00" fill="#000000">Puddle</text>
</g>
<!-- Driver&#45;&gt;Puddle -->
<g id="edge3" class="edge">
<title>Driver&#45;&gt;Puddle</title>
<path fill="none" stroke="#04fe25" d="M410.0053,-143.2948C425.5744,-133.0107 444.8827,-120.2566 460.7069,-109.8039"/>
<ellipse fill="none" stroke="#04fe25" cx="406.3004" cy="-145.7421" rx="4" ry="4"/>
<polygon fill="#04fe25" stroke="#04fe25" points="460.7498,-109.7755 471.5741,-108.0187 464.9218,-107.0197 469.0938,-104.2639 469.0938,-104.2639 469.0938,-104.2639 464.9218,-107.0197 466.6136,-100.5091 460.7498,-109.7755 460.7498,-109.7755"/>
</g>
<!-- Location&#45;&gt;User -->
<g id="edge4" class="edge">
<title>Location&#45;&gt;User</title>
<path fill="none" stroke="#35ecc4" d="M419.977,-280.7192C423.1494,-274.1931 426.5732,-267.1499 429.7763,-260.5607"/>
<ellipse fill="none" stroke="#35ecc4" cx="418.0882" cy="-284.6048" rx="4" ry="4"/>
<polygon fill="#35ecc4" stroke="#35ecc4" points="429.8844,-260.3383 438.3035,-253.312 432.0704,-255.8414 434.2563,-251.3446 434.2563,-251.3446 434.2563,-251.3446 432.0704,-255.8414 430.2092,-249.3772 429.8844,-260.3383 429.8844,-260.3383"/>
</g>
<!-- Passenger -->
<g id="node7" class="node">
<title>Passenger</title>
<ellipse fill="none" stroke="#000000" cx="601.6877" cy="-162" rx="45.4441" ry="18"/>
<text text-anchor="middle" x="601.6877" y="-157.8" font-family="Times,serif" font-size="14.00" fill="#000000">Passenger</text>
</g>
<!-- Passenger&#45;&gt;Puddle -->
<g id="edge6" class="edge">
<title>Passenger&#45;&gt;Puddle</title>
<path fill="none" stroke="#0f6559" d="M569.291,-140.9859C554.0428,-131.0952 535.9624,-119.3674 520.9887,-109.6547"/>
<polygon fill="#0f6559" stroke="#0f6559" points="569.4858,-141.1122 575.4266,-150.3295 573.6806,-143.8332 577.8755,-146.5542 577.8755,-146.5542 577.8755,-146.5542 573.6806,-143.8332 580.3243,-142.7789 569.4858,-141.1122 569.4858,-141.1122"/>
<polygon fill="#0f6559" stroke="#0f6559" points="520.966,-109.64 515.0252,-100.4227 516.7712,-106.919 512.5764,-104.198 512.5764,-104.198 512.5764,-104.198 516.7712,-106.919 510.1275,-107.9734 520.966,-109.64 520.966,-109.64"/>
</g>
<!-- PuddlePassenger -->
<g id="node10" class="node">
<title>PuddlePassenger</title>
<ellipse fill="none" stroke="#000000" cx="521.6877" cy="-18" rx="70.0754" ry="18"/>
<text text-anchor="middle" x="521.6877" y="-13.8" font-family="Times,serif" font-size="14.00" fill="#000000">PuddlePassenger</text>
</g>
<!-- Passenger&#45;&gt;PuddlePassenger -->
<g id="edge5" class="edge">
<title>Passenger&#45;&gt;PuddlePassenger</title>
<path fill="none" stroke="#0eef76" d="M587.8522,-137.096C573.5758,-111.3985 551.3772,-71.4411 536.6875,-44.9995"/>
<ellipse fill="none" stroke="#0eef76" cx="589.9356" cy="-140.8461" rx="4" ry="4"/>
<polygon fill="#0eef76" stroke="#0eef76" points="536.6864,-44.9975 535.7637,-34.0705 534.2582,-40.6268 531.8299,-36.256 531.8299,-36.256 531.8299,-36.256 534.2582,-40.6268 527.8962,-38.4414 536.6864,-44.9975 536.6864,-44.9975"/>
</g>
<!-- Profile -->
<g id="node8" class="node">
<title>Profile</title>
<ellipse fill="none" stroke="#000000" cx="504.6877" cy="-162" rx="33.8857" ry="18"/>
<text text-anchor="middle" x="504.6877" y="-157.8" font-family="Times,serif" font-size="14.00" fill="#000000">Profile</text>
</g>
<!-- Puddle&#45;&gt;PuddlePassenger -->
<g id="edge7" class="edge">
<title>Puddle&#45;&gt;PuddlePassenger</title>
<path fill="none" stroke="#b78205" d="M501.6195,-64.6102C504.2788,-58.4338 507.135,-51.7999 509.8348,-45.5295"/>
<ellipse fill="none" stroke="#b78205" cx="499.9325" cy="-68.5283" rx="4" ry="4"/>
<polygon fill="#b78205" stroke="#b78205" points="509.943,-45.278 518.0308,-37.8727 511.9203,-40.6855 513.8977,-36.0931 513.8977,-36.0931 513.8977,-36.0931 511.9203,-40.6855 509.7645,-34.3135 509.943,-45.278 509.943,-45.278"/>
</g>
<!-- User&#45;&gt;Car -->
<g id="edge12" class="edge">
<title>User&#45;&gt;Car</title>
<path fill="none" stroke="#3f5500" d="M413.8514,-219.0632C390.6019,-207.0203 357.9873,-190.1264 334.2818,-177.8473"/>
<ellipse fill="none" stroke="#3f5500" cx="417.7218" cy="-221.068" rx="4" ry="4"/>
<polygon fill="#3f5500" stroke="#3f5500" points="334.2347,-177.8229 327.425,-169.2277 329.795,-175.5232 325.3552,-173.2234 325.3552,-173.2234 325.3552,-173.2234 329.795,-175.5232 323.2854,-177.2192 334.2347,-177.8229 334.2347,-177.8229"/>
</g>
<!-- User&#45;&gt;Driver -->
<g id="edge8" class="edge">
<title>User&#45;&gt;Driver</title>
<path fill="none" stroke="#c9775e" d="M423.7314,-211.6253C416.9118,-203.5759 409.1889,-194.4604 402.2398,-186.2582"/>
<ellipse fill="none" stroke="#c9775e" cx="426.5642" cy="-214.9689" rx="4" ry="4"/>
<polygon fill="#c9775e" stroke="#c9775e" points="402.0749,-186.0635 399.0441,-175.5247 398.8428,-182.2486 395.6107,-178.4336 395.6107,-178.4336 395.6107,-178.4336 398.8428,-182.2486 392.1773,-181.3425 402.0749,-186.0635 402.0749,-186.0635"/>
</g>
<!-- User&#45;&gt;Passenger -->
<g id="edge10" class="edge">
<title>User&#45;&gt;Passenger</title>
<path fill="none" stroke="#6c1efa" d="M472.7174,-220.4017C498.0155,-208.9459 534.4051,-192.4676 562.0845,-179.9336"/>
<ellipse fill="none" stroke="#6c1efa" cx="468.7752" cy="-222.1868" rx="4" ry="4"/>
<polygon fill="#6c1efa" stroke="#6c1efa" points="562.3697,-179.8044 573.3356,-179.7786 566.9245,-177.7419 571.4793,-175.6793 571.4793,-175.6793 571.4793,-175.6793 566.9245,-177.7419 569.623,-171.58 562.3697,-179.8044 562.3697,-179.8044"/>
</g>
<!-- User&#45;&gt;Profile -->
<g id="edge11" class="edge">
<title>User&#45;&gt;Profile</title>
<path fill="none" stroke="#7753d6" d="M461.3872,-212.2845C468.4437,-204.0899 476.5151,-194.7167 483.7623,-186.3006"/>
<ellipse fill="none" stroke="#7753d6" cx="458.7509" cy="-215.346" rx="4" ry="4"/>
<polygon fill="#7753d6" stroke="#7753d6" points="483.8728,-186.1722 493.808,-181.5309 487.1354,-182.3834 490.398,-178.5945 490.398,-178.5945 490.398,-178.5945 487.1354,-182.3834 486.988,-175.6582 483.8728,-186.1722 483.8728,-186.1722"/>
</g>
<!-- User&#45;&gt;Puddle -->
<g id="edge9" class="edge">
<title>User&#45;&gt;Puddle</title>
<path fill="none" stroke="#919839" d="M446.476,-206.0918C449.4373,-188.0225 454.309,-164.1862 461.6877,-144 465.1219,-134.6051 469.9441,-124.8289 474.6719,-116.2182"/>
<polygon fill="#919839" stroke="#919839" points="446.4732,-206.11 440.5012,-215.307 445.7109,-211.0515 444.9486,-215.9931 444.9486,-215.9931 444.9486,-215.9931 445.7109,-211.0515 449.396,-216.6792 446.4732,-206.11 446.4732,-206.11"/>
<polygon fill="#919839" stroke="#919839" points="474.7432,-116.0931 483.6045,-109.6335 477.2191,-111.7492 479.695,-107.4052 479.695,-107.4052 479.695,-107.4052 477.2191,-111.7492 475.7854,-105.1769 474.7432,-116.0931 474.7432,-116.0931"/>
</g>
</g>
</svg>
