<?xml version="1.0" encoding="UTF-8" standalone="no"?>
<!DOCTYPE svg PUBLIC "-//W3C//DTD SVG 1.1//EN"
 "http://www.w3.org/Graphics/SVG/1.1/DTD/svg11.dtd">
<!-- Generated by graphviz version 2.40.1 (20161225.0304)
 -->
<!-- Title: models_diagram Pages: 1 -->
<svg width="623pt" height="441pt"
 viewBox="0.00 0.00 623.19 441.00" xmlns="http://www.w3.org/2000/svg" xmlns:xlink="http://www.w3.org/1999/xlink">
<g id="graph0" class="graph" transform="scale(1 1) rotate(0) translate(4 437)">
<title>models_diagram</title>
<polygon fill="transparent" stroke="transparent" points="-4,4 -4,-437 619.1923,-437 619.1923,4 -4,4"/>
<!-- _diagram_info -->
<g id="node1" class="node">
<title>_diagram_info</title>
<text text-anchor="start" x="8" y="-418.6" font-family="Times,serif" font-size="13.00" fill="#000000">Models diagram</text>
<text text-anchor="start" x="8" y="-405.6" font-family="Times,serif" font-size="13.00" fill="#000000">Date: Jan 11 2017 &#45; 13:18</text>
<text text-anchor="start" x="8" y="-392.6" font-family="Times,serif" font-size="13.00" fill="#000000">Migration version: 0</text>
<text text-anchor="start" x="8" y="-379.6" font-family="Times,serif" font-size="13.00" fill="#000000">Generated by RailRoady 1.5.2</text>
<text text-anchor="start" x="8" y="-366.6" font-family="Times,serif" font-size="13.00" fill="#000000">http://railroady.prestonlee.com</text>
</g>
<!-- ApplicationRecord -->
<g id="node2" class="node">
<title>ApplicationRecord</title>
<ellipse fill="none" stroke="#000000" cx="270.7202" cy="-396.5" rx="77.2916" ry="18"/>
<text text-anchor="middle" x="270.7202" y="-392.3" font-family="Times,serif" font-size="14.00" fill="#000000">ApplicationRecord</text>
</g>
<!-- Car -->
<g id="node3" class="node">
<title>Car</title>
<ellipse fill="none" stroke="#000000" cx="271.7202" cy="-162" rx="27" ry="18"/>
<text text-anchor="middle" x="271.7202" y="-157.8" font-family="Times,serif" font-size="14.00" fill="#000000">Car</text>
</g>
<!-- Company -->
<g id="node4" class="node">
<title>Company</title>
<ellipse fill="none" stroke="#000000" cx="410.7202" cy="-396.5" rx="44.4923" ry="18"/>
<text text-anchor="middle" x="410.7202" y="-392.3" font-family="Times,serif" font-size="14.00" fill="#000000">Company</text>
</g>
<!-- Location -->
<g id="node6" class="node">
<title>Location</title>
<ellipse fill="none" stroke="#000000" cx="375.7202" cy="-306" rx="41.5766" ry="18"/>
<text text-anchor="middle" x="375.7202" y="-301.8" font-family="Times,serif" font-size="14.00" fill="#000000">Location</text>
</g>
<!-- Company&#45;&gt;Location -->
<g id="edge1" class="edge">
<title>Company&#45;&gt;Location</title>
<path fill="none" stroke="#e37c8d" d="M400.9073,-371.1266C396.3575,-359.362 390.9424,-345.3603 386.3013,-333.3596"/>
<ellipse fill="none" stroke="#e37c8d" cx="402.3625" cy="-374.8894" rx="4" ry="4"/>
<polygon fill="#e37c8d" stroke="#e37c8d" points="386.2278,-333.1696 386.8178,-322.2195 384.4243,-328.5061 382.6207,-323.8427 382.6207,-323.8427 382.6207,-323.8427 384.4243,-328.5061 378.4237,-325.4659 386.2278,-333.1696 386.2278,-333.1696"/>
</g>
<!-- User -->
<g id="node11" class="node">
<title>User</title>
<ellipse fill="none" stroke="#000000" cx="410.7202" cy="-234" rx="27" ry="18"/>
<text text-anchor="middle" x="410.7202" y="-229.8" font-family="Times,serif" font-size="14.00" fill="#000000">User</text>
</g>
<!-- Company&#45;&gt;User -->
<g id="edge2" class="edge">
<title>Company&#45;&gt;User</title>
<path fill="none" stroke="#0c19cc" d="M419.2662,-368.8088C424.9534,-346.8875 430.7074,-315.4914 426.7202,-288 425.4431,-279.1943 423.0522,-269.8255 420.5007,-261.4067"/>
<polygon fill="#0c19cc" stroke="#0c19cc" points="419.2641,-368.8169 412.2698,-377.2626 417.9361,-373.6373 416.6082,-378.4578 416.6082,-378.4578 416.6082,-378.4578 417.9361,-373.6373 420.9466,-379.6529 419.2641,-368.8169 419.2641,-368.8169"/>
<polygon fill="#0c19cc" stroke="#0c19cc" points="420.443,-261.2275 421.6556,-250.3289 418.908,-256.469 417.3729,-251.7104 417.3729,-251.7104 417.3729,-251.7104 418.908,-256.469 413.0902,-253.092 420.443,-261.2275 420.443,-261.2275"/>
</g>
<!-- Driver -->
<g id="node5" class="node">
<title>Driver</title>
<ellipse fill="none" stroke="#000000" cx="349.7202" cy="-162" rx="33.3752" ry="18"/>
<text text-anchor="middle" x="349.7202" y="-157.8" font-family="Times,serif" font-size="14.00" fill="#000000">Driver</text>
</g>
<!-- Puddle -->
<g id="node9" class="node">
<title>Puddle</title>
<ellipse fill="none" stroke="#000000" cx="458.7202" cy="-90" rx="34.8458" ry="18"/>
<text text-anchor="middle" x="458.7202" y="-85.8" font-family="Times,serif" font-size="14.00" fill="#000000">Puddle</text>
</g>
<!-- Driver&#45;&gt;Puddle -->
<g id="edge3" class="edge">
<title>Driver&#45;&gt;Puddle</title>
<path fill="none" stroke="#c4ac35" d="M378.0377,-143.2948C393.6069,-133.0107 412.9152,-120.2566 428.7394,-109.8039"/>
<ellipse fill="none" stroke="#c4ac35" cx="374.3329" cy="-145.7421" rx="4" ry="4"/>
<polygon fill="#c4ac35" stroke="#c4ac35" points="428.7823,-109.7755 439.6066,-108.0187 432.9543,-107.0197 437.1263,-104.2639 437.1263,-104.2639 437.1263,-104.2639 432.9543,-107.0197 434.6461,-100.5091 428.7823,-109.7755 428.7823,-109.7755"/>
</g>
<!-- Location&#45;&gt;User -->
<g id="edge4" class="edge">
<title>Location&#45;&gt;User</title>
<path fill="none" stroke="#926967" d="M388.0095,-280.7192C391.1819,-274.1931 394.6057,-267.1499 397.8088,-260.5607"/>
<ellipse fill="none" stroke="#926967" cx="386.1207" cy="-284.6048" rx="4" ry="4"/>
<polygon fill="#926967" stroke="#926967" points="397.9168,-260.3383 406.336,-253.312 400.1028,-255.8414 402.2888,-251.3446 402.2888,-251.3446 402.2888,-251.3446 400.1028,-255.8414 398.2417,-249.3772 397.9168,-260.3383 397.9168,-260.3383"/>
</g>
<!-- Passenger -->
<g id="node7" class="node">
<title>Passenger</title>
<ellipse fill="none" stroke="#000000" cx="569.7202" cy="-162" rx="45.4441" ry="18"/>
<text text-anchor="middle" x="569.7202" y="-157.8" font-family="Times,serif" font-size="14.00" fill="#000000">Passenger</text>
</g>
<!-- Passenger&#45;&gt;Puddle -->
<g id="edge6" class="edge">
<title>Passenger&#45;&gt;Puddle</title>
<path fill="none" stroke="#5c9c3e" d="M537.3235,-140.9859C522.0753,-131.0952 503.9949,-119.3674 489.0212,-109.6547"/>
<polygon fill="#5c9c3e" stroke="#5c9c3e" points="537.5183,-141.1122 543.459,-150.3295 541.7131,-143.8332 545.9079,-146.5542 545.9079,-146.5542 545.9079,-146.5542 541.7131,-143.8332 548.3568,-142.7789 537.5183,-141.1122 537.5183,-141.1122"/>
<polygon fill="#5c9c3e" stroke="#5c9c3e" points="488.9985,-109.64 483.0577,-100.4227 484.8036,-106.919 480.6088,-104.198 480.6088,-104.198 480.6088,-104.198 484.8036,-106.919 478.1599,-107.9734 488.9985,-109.64 488.9985,-109.64"/>
</g>
<!-- PuddlePassenger -->
<g id="node10" class="node">
<title>PuddlePassenger</title>
<ellipse fill="none" stroke="#000000" cx="489.7202" cy="-18" rx="70.0754" ry="18"/>
<text text-anchor="middle" x="489.7202" y="-13.8" font-family="Times,serif" font-size="14.00" fill="#000000">PuddlePassenger</text>
</g>
<!-- Passenger&#45;&gt;PuddlePassenger -->
<g id="edge5" class="edge">
<title>Passenger&#45;&gt;PuddlePassenger</title>
<path fill="none" stroke="#e603a2" d="M555.8847,-137.096C541.6083,-111.3985 519.4097,-71.4411 504.7199,-44.9995"/>
<ellipse fill="none" stroke="#e603a2" cx="557.968" cy="-140.8461" rx="4" ry="4"/>
<polygon fill="#e603a2" stroke="#e603a2" points="504.7189,-44.9975 503.7961,-34.0705 502.2907,-40.6268 499.8624,-36.256 499.8624,-36.256 499.8624,-36.256 502.2907,-40.6268 495.9287,-38.4414 504.7189,-44.9975 504.7189,-44.9975"/>
</g>
<!-- Profile -->
<g id="node8" class="node">
<title>Profile</title>
<ellipse fill="none" stroke="#000000" cx="472.7202" cy="-162" rx="33.8857" ry="18"/>
<text text-anchor="middle" x="472.7202" y="-157.8" font-family="Times,serif" font-size="14.00" fill="#000000">Profile</text>
</g>
<!-- Puddle&#45;&gt;PuddlePassenger -->
<g id="edge7" class="edge">
<title>Puddle&#45;&gt;PuddlePassenger</title>
<path fill="none" stroke="#c82a7d" d="M469.652,-64.6102C472.3112,-58.4338 475.1675,-51.7999 477.8673,-45.5295"/>
<ellipse fill="none" stroke="#c82a7d" cx="467.965" cy="-68.5283" rx="4" ry="4"/>
<polygon fill="#c82a7d" stroke="#c82a7d" points="477.9755,-45.278 486.0633,-37.8727 479.9528,-40.6855 481.9301,-36.0931 481.9301,-36.0931 481.9301,-36.0931 479.9528,-40.6855 477.7969,-34.3135 477.9755,-45.278 477.9755,-45.278"/>
</g>
<!-- User&#45;&gt;Car -->
<g id="edge12" class="edge">
<title>User&#45;&gt;Car</title>
<path fill="none" stroke="#0959c9" d="M381.8839,-219.0632C358.6344,-207.0203 326.0198,-190.1264 302.3142,-177.8473"/>
<ellipse fill="none" stroke="#0959c9" cx="385.7543" cy="-221.068" rx="4" ry="4"/>
<polygon fill="#0959c9" stroke="#0959c9" points="302.2672,-177.8229 295.4575,-169.2277 297.8274,-175.5232 293.3877,-173.2234 293.3877,-173.2234 293.3877,-173.2234 297.8274,-175.5232 291.3179,-177.2192 302.2672,-177.8229 302.2672,-177.8229"/>
</g>
<!-- User&#45;&gt;Driver -->
<g id="edge8" class="edge">
<title>User&#45;&gt;Driver</title>
<path fill="none" stroke="#459f37" d="M391.7638,-211.6253C384.9442,-203.5759 377.2214,-194.4604 370.2723,-186.2582"/>
<ellipse fill="none" stroke="#459f37" cx="394.5967" cy="-214.9689" rx="4" ry="4"/>
<polygon fill="#459f37" stroke="#459f37" points="370.1074,-186.0635 367.0766,-175.5247 366.8753,-182.2486 363.6432,-178.4336 363.6432,-178.4336 363.6432,-178.4336 366.8753,-182.2486 360.2097,-181.3425 370.1074,-186.0635 370.1074,-186.0635"/>
</g>
<!-- User&#45;&gt;Passenger -->
<g id="edge10" class="edge">
<title>User&#45;&gt;Passenger</title>
<path fill="none" stroke="#e1f271" d="M440.7499,-220.4017C466.048,-208.9459 502.4376,-192.4676 530.1169,-179.9336"/>
<ellipse fill="none" stroke="#e1f271" cx="436.8076" cy="-222.1868" rx="4" ry="4"/>
<polygon fill="#e1f271" stroke="#e1f271" points="530.4022,-179.8044 541.3681,-179.7786 534.957,-177.7419 539.5118,-175.6793 539.5118,-175.6793 539.5118,-175.6793 534.957,-177.7419 537.6555,-171.58 530.4022,-179.8044 530.4022,-179.8044"/>
</g>
<!-- User&#45;&gt;Profile -->
<g id="edge11" class="edge">
<title>User&#45;&gt;Profile</title>
<path fill="none" stroke="#fbc58a" d="M429.4197,-212.2845C436.4761,-204.0899 444.5475,-194.7167 451.7947,-186.3006"/>
<ellipse fill="none" stroke="#fbc58a" cx="426.7834" cy="-215.346" rx="4" ry="4"/>
<polygon fill="#fbc58a" stroke="#fbc58a" points="451.9052,-186.1722 461.8405,-181.5309 455.1679,-182.3834 458.4305,-178.5945 458.4305,-178.5945 458.4305,-178.5945 455.1679,-182.3834 455.0205,-175.6582 451.9052,-186.1722 451.9052,-186.1722"/>
</g>
<!-- User&#45;&gt;Puddle -->
<g id="edge9" class="edge">
<title>User&#45;&gt;Puddle</title>
<path fill="none" stroke="#f4bfa3" d="M414.5084,-206.0918C417.4697,-188.0225 422.3415,-164.1862 429.7202,-144 433.1544,-134.6051 437.9766,-124.8289 442.7044,-116.2182"/>
<polygon fill="#f4bfa3" stroke="#f4bfa3" points="414.5057,-206.11 408.5337,-215.307 413.7434,-211.0515 412.9811,-215.9931 412.9811,-215.9931 412.9811,-215.9931 413.7434,-211.0515 417.4285,-216.6792 414.5057,-206.11 414.5057,-206.11"/>
<polygon fill="#f4bfa3" stroke="#f4bfa3" points="442.7756,-116.0931 451.637,-109.6335 445.2515,-111.7492 447.7274,-107.4052 447.7274,-107.4052 447.7274,-107.4052 445.2515,-111.7492 443.8179,-105.1769 442.7756,-116.0931 442.7756,-116.0931"/>
</g>
</g>
</svg>
