<?xml version="1.0" encoding="UTF-8" standalone="no"?>
<!DOCTYPE svg PUBLIC "-//W3C//DTD SVG 1.1//EN"
 "http://www.w3.org/Graphics/SVG/1.1/DTD/svg11.dtd">
<!-- Generated by graphviz version 2.40.1 (20161225.0304)
 -->
<!-- Title: models_diagram Pages: 1 -->
<svg width="1604pt" height="741pt"
 viewBox="0.00 0.00 1603.55 741.00" xmlns="http://www.w3.org/2000/svg" xmlns:xlink="http://www.w3.org/1999/xlink">
<g id="graph0" class="graph" transform="scale(1 1) rotate(0) translate(4 737)">
<title>models_diagram</title>
<polygon fill="transparent" stroke="transparent" points="-4,4 -4,-737 1599.55,-737 1599.55,4 -4,4"/>
<!-- _diagram_info -->
<g id="node1" class="node">
<title>_diagram_info</title>
<text text-anchor="start" x="8" y="-711.6" font-family="Times,serif" font-size="13.00" fill="#000000">Models diagram</text>
<text text-anchor="start" x="8" y="-698.6" font-family="Times,serif" font-size="13.00" fill="#000000">Date: Jan 12 2017 &#45; 09:55</text>
<text text-anchor="start" x="8" y="-685.6" font-family="Times,serif" font-size="13.00" fill="#000000">Migration version: 20170109213403</text>
<text text-anchor="start" x="8" y="-672.6" font-family="Times,serif" font-size="13.00" fill="#000000">Generated by RailRoady 1.5.2</text>
<text text-anchor="start" x="8" y="-659.6" font-family="Times,serif" font-size="13.00" fill="#000000">http://railroady.prestonlee.com</text>
</g>
<!-- ApplicationRecord -->
<g id="node2" class="node">
<title>ApplicationRecord</title>
<ellipse fill="none" stroke="#000000" cx="302.6877" cy="-689.5" rx="77.2916" ry="18"/>
<text text-anchor="middle" x="302.6877" y="-685.3" font-family="Times,serif" font-size="14.00" fill="#000000">ApplicationRecord</text>
</g>
<!-- Car -->
<g id="node3" class="node">
<title>Car</title>
<path fill="none" stroke="#000000" d="M1359.8254,-302.5C1359.8254,-302.5 1583.55,-302.5 1583.55,-302.5 1589.55,-302.5 1595.55,-308.5 1595.55,-314.5 1595.55,-314.5 1595.55,-432.5 1595.55,-432.5 1595.55,-438.5 1589.55,-444.5 1583.55,-444.5 1583.55,-444.5 1359.8254,-444.5 1359.8254,-444.5 1353.8254,-444.5 1347.8254,-438.5 1347.8254,-432.5 1347.8254,-432.5 1347.8254,-314.5 1347.8254,-314.5 1347.8254,-308.5 1353.8254,-302.5 1359.8254,-302.5"/>
<text text-anchor="middle" x="1471.6877" y="-429.3" font-family="Times,serif" font-size="14.00" fill="#000000">Car</text>
<polyline fill="none" stroke="#000000" points="1347.8254,-422.5 1595.55,-422.5 "/>
<text text-anchor="start" x="1355.8254" y="-407.3" font-family="Times,serif" font-size="14.00" fill="#000000">updated_at :timestamp without time zone</text>
<text text-anchor="start" x="1355.8254" y="-393.3" font-family="Times,serif" font-size="14.00" fill="#000000">make :character varying</text>
<text text-anchor="start" x="1355.8254" y="-379.3" font-family="Times,serif" font-size="14.00" fill="#000000">model :character varying</text>
<text text-anchor="start" x="1355.8254" y="-365.3" font-family="Times,serif" font-size="14.00" fill="#000000">year :integer</text>
<text text-anchor="start" x="1355.8254" y="-351.3" font-family="Times,serif" font-size="14.00" fill="#000000">color :character varying</text>
<text text-anchor="start" x="1355.8254" y="-337.3" font-family="Times,serif" font-size="14.00" fill="#000000">user_id :integer</text>
<text text-anchor="start" x="1355.8254" y="-323.3" font-family="Times,serif" font-size="14.00" fill="#000000">created_at :timestamp without time zone</text>
<text text-anchor="start" x="1355.8254" y="-309.3" font-family="Times,serif" font-size="14.00" fill="#000000">id :integer</text>
</g>
<!-- Company -->
<g id="node4" class="node">
<title>Company</title>
<path fill="none" stroke="#000000" d="M409.8254,-646.5C409.8254,-646.5 633.55,-646.5 633.55,-646.5 639.55,-646.5 645.55,-652.5 645.55,-658.5 645.55,-658.5 645.55,-720.5 645.55,-720.5 645.55,-726.5 639.55,-732.5 633.55,-732.5 633.55,-732.5 409.8254,-732.5 409.8254,-732.5 403.8254,-732.5 397.8254,-726.5 397.8254,-720.5 397.8254,-720.5 397.8254,-658.5 397.8254,-658.5 397.8254,-652.5 403.8254,-646.5 409.8254,-646.5"/>
<text text-anchor="middle" x="521.6877" y="-717.3" font-family="Times,serif" font-size="14.00" fill="#000000">Company</text>
<polyline fill="none" stroke="#000000" points="397.8254,-710.5 645.55,-710.5 "/>
<text text-anchor="start" x="405.8254" y="-695.3" font-family="Times,serif" font-size="14.00" fill="#000000">id :integer</text>
<text text-anchor="start" x="405.8254" y="-681.3" font-family="Times,serif" font-size="14.00" fill="#000000">name :character varying</text>
<text text-anchor="start" x="405.8254" y="-667.3" font-family="Times,serif" font-size="14.00" fill="#000000">created_at :timestamp without time zone</text>
<text text-anchor="start" x="405.8254" y="-653.3" font-family="Times,serif" font-size="14.00" fill="#000000">updated_at :timestamp without time zone</text>
</g>
<!-- Location -->
<g id="node6" class="node">
<title>Location</title>
<path fill="none" stroke="#000000" d="M257.8254,-316.5C257.8254,-316.5 481.55,-316.5 481.55,-316.5 487.55,-316.5 493.55,-322.5 493.55,-328.5 493.55,-328.5 493.55,-418.5 493.55,-418.5 493.55,-424.5 487.55,-430.5 481.55,-430.5 481.55,-430.5 257.8254,-430.5 257.8254,-430.5 251.8254,-430.5 245.8254,-424.5 245.8254,-418.5 245.8254,-418.5 245.8254,-328.5 245.8254,-328.5 245.8254,-322.5 251.8254,-316.5 257.8254,-316.5"/>
<text text-anchor="middle" x="369.6877" y="-415.3" font-family="Times,serif" font-size="14.00" fill="#000000">Location</text>
<polyline fill="none" stroke="#000000" points="245.8254,-408.5 493.55,-408.5 "/>
<text text-anchor="start" x="253.8254" y="-393.3" font-family="Times,serif" font-size="14.00" fill="#000000">id :integer</text>
<text text-anchor="start" x="253.8254" y="-379.3" font-family="Times,serif" font-size="14.00" fill="#000000">name :character varying</text>
<text text-anchor="start" x="253.8254" y="-365.3" font-family="Times,serif" font-size="14.00" fill="#000000">address :character varying</text>
<text text-anchor="start" x="253.8254" y="-351.3" font-family="Times,serif" font-size="14.00" fill="#000000">company_id :integer</text>
<text text-anchor="start" x="253.8254" y="-337.3" font-family="Times,serif" font-size="14.00" fill="#000000">created_at :timestamp without time zone</text>
<text text-anchor="start" x="253.8254" y="-323.3" font-family="Times,serif" font-size="14.00" fill="#000000">updated_at :timestamp without time zone</text>
</g>
<!-- Company&#45;&gt;Location -->
<g id="edge1" class="edge">
<title>Company&#45;&gt;Location</title>
<path fill="none" stroke="#14bd59" d="M483.0083,-639.3587C476.4792,-629.8647 470.0799,-619.8236 464.6877,-610 434.5476,-555.0899 408.6916,-488.5898 391.598,-440.1084"/>
<ellipse fill="none" stroke="#14bd59" cx="485.4787" cy="-642.8873" rx="4" ry="4"/>
<polygon fill="#14bd59" stroke="#14bd59" points="391.5957,-440.1016 392.5457,-429.177 389.9466,-435.3814 388.2975,-430.6612 388.2975,-430.6612 388.2975,-430.6612 389.9466,-435.3814 384.0493,-432.1454 391.5957,-440.1016 391.5957,-440.1016"/>
</g>
<!-- User -->
<g id="node11" class="node">
<title>User</title>
<path fill="none" stroke="#000000" d="M485.8254,-481.5C485.8254,-481.5 709.55,-481.5 709.55,-481.5 715.55,-481.5 721.55,-487.5 721.55,-493.5 721.55,-493.5 721.55,-597.5 721.55,-597.5 721.55,-603.5 715.55,-609.5 709.55,-609.5 709.55,-609.5 485.8254,-609.5 485.8254,-609.5 479.8254,-609.5 473.8254,-603.5 473.8254,-597.5 473.8254,-597.5 473.8254,-493.5 473.8254,-493.5 473.8254,-487.5 479.8254,-481.5 485.8254,-481.5"/>
<text text-anchor="middle" x="597.6877" y="-594.3" font-family="Times,serif" font-size="14.00" fill="#000000">User</text>
<polyline fill="none" stroke="#000000" points="473.8254,-587.5 721.55,-587.5 "/>
<text text-anchor="start" x="481.8254" y="-572.3" font-family="Times,serif" font-size="14.00" fill="#000000">company_id :integer</text>
<text text-anchor="start" x="481.8254" y="-558.3" font-family="Times,serif" font-size="14.00" fill="#000000">email :character varying</text>
<text text-anchor="start" x="481.8254" y="-544.3" font-family="Times,serif" font-size="14.00" fill="#000000">password_digest :character varying</text>
<text text-anchor="start" x="481.8254" y="-530.3" font-family="Times,serif" font-size="14.00" fill="#000000">id :integer</text>
<text text-anchor="start" x="481.8254" y="-516.3" font-family="Times,serif" font-size="14.00" fill="#000000">admin :boolean</text>
<text text-anchor="start" x="481.8254" y="-502.3" font-family="Times,serif" font-size="14.00" fill="#000000">created_at :timestamp without time zone</text>
<text text-anchor="start" x="481.8254" y="-488.3" font-family="Times,serif" font-size="14.00" fill="#000000">updated_at :timestamp without time zone</text>
</g>
<!-- Company&#45;&gt;User -->
<g id="edge2" class="edge">
<title>Company&#45;&gt;User</title>
<path fill="none" stroke="#68dd5c" d="M548.264,-639.1449C551.7141,-632.608 555.3026,-625.8087 558.9006,-618.9915"/>
<ellipse fill="none" stroke="#68dd5c" cx="546.3573" cy="-642.7577" rx="4" ry="4"/>
<polygon fill="#68dd5c" stroke="#68dd5c" points="559.1329,-618.5511 567.7803,-611.8077 561.4668,-614.1292 563.8006,-609.7073 563.8006,-609.7073 563.8006,-609.7073 561.4668,-614.1292 559.8208,-607.6068 559.1329,-618.5511 559.1329,-618.5511"/>
</g>
<!-- Driver -->
<g id="node5" class="node">
<title>Driver</title>
<path fill="none" stroke="#000000" d="M561.8254,-330.5C561.8254,-330.5 785.55,-330.5 785.55,-330.5 791.55,-330.5 797.55,-336.5 797.55,-342.5 797.55,-342.5 797.55,-404.5 797.55,-404.5 797.55,-410.5 791.55,-416.5 785.55,-416.5 785.55,-416.5 561.8254,-416.5 561.8254,-416.5 555.8254,-416.5 549.8254,-410.5 549.8254,-404.5 549.8254,-404.5 549.8254,-342.5 549.8254,-342.5 549.8254,-336.5 555.8254,-330.5 561.8254,-330.5"/>
<text text-anchor="middle" x="673.6877" y="-401.3" font-family="Times,serif" font-size="14.00" fill="#000000">Driver</text>
<polyline fill="none" stroke="#000000" points="549.8254,-394.5 797.55,-394.5 "/>
<text text-anchor="start" x="557.8254" y="-379.3" font-family="Times,serif" font-size="14.00" fill="#000000">id :integer</text>
<text text-anchor="start" x="557.8254" y="-365.3" font-family="Times,serif" font-size="14.00" fill="#000000">user_id :integer</text>
<text text-anchor="start" x="557.8254" y="-351.3" font-family="Times,serif" font-size="14.00" fill="#000000">created_at :timestamp without time zone</text>
<text text-anchor="start" x="557.8254" y="-337.3" font-family="Times,serif" font-size="14.00" fill="#000000">updated_at :timestamp without time zone</text>
</g>
<!-- Puddle -->
<g id="node9" class="node">
<title>Puddle</title>
<path fill="none" stroke="#000000" d="M734.1667,-137.5C734.1667,-137.5 981.2087,-137.5 981.2087,-137.5 987.2087,-137.5 993.2087,-143.5 993.2087,-149.5 993.2087,-149.5 993.2087,-253.5 993.2087,-253.5 993.2087,-259.5 987.2087,-265.5 981.2087,-265.5 981.2087,-265.5 734.1667,-265.5 734.1667,-265.5 728.1667,-265.5 722.1667,-259.5 722.1667,-253.5 722.1667,-253.5 722.1667,-149.5 722.1667,-149.5 722.1667,-143.5 728.1667,-137.5 734.1667,-137.5"/>
<text text-anchor="middle" x="857.6877" y="-250.3" font-family="Times,serif" font-size="14.00" fill="#000000">Puddle</text>
<polyline fill="none" stroke="#000000" points="722.1667,-243.5 993.2087,-243.5 "/>
<text text-anchor="start" x="730.1667" y="-228.3" font-family="Times,serif" font-size="14.00" fill="#000000">distance :double precision</text>
<text text-anchor="start" x="730.1667" y="-214.3" font-family="Times,serif" font-size="14.00" fill="#000000">departure_time :timestamp without time zone</text>
<text text-anchor="start" x="730.1667" y="-200.3" font-family="Times,serif" font-size="14.00" fill="#000000">seats :integer</text>
<text text-anchor="start" x="730.1667" y="-186.3" font-family="Times,serif" font-size="14.00" fill="#000000">id :integer</text>
<text text-anchor="start" x="730.1667" y="-172.3" font-family="Times,serif" font-size="14.00" fill="#000000">driver_id :integer</text>
<text text-anchor="start" x="730.1667" y="-158.3" font-family="Times,serif" font-size="14.00" fill="#000000">created_at :timestamp without time zone</text>
<text text-anchor="start" x="730.1667" y="-144.3" font-family="Times,serif" font-size="14.00" fill="#000000">updated_at :timestamp without time zone</text>
</g>
<!-- Driver&#45;&gt;Puddle -->
<g id="edge3" class="edge">
<title>Driver&#45;&gt;Puddle</title>
<path fill="none" stroke="#381c55" d="M726.0926,-324.5129C743.3705,-308.3618 762.9508,-290.0584 781.6272,-272.6001"/>
<ellipse fill="none" stroke="#381c55" cx="723.0408" cy="-327.3656" rx="4" ry="4"/>
<polygon fill="#381c55" stroke="#381c55" points="781.7041,-272.5282 792.0824,-268.9867 785.3568,-269.1137 789.0094,-265.6993 789.0094,-265.6993 789.0094,-265.6993 785.3568,-269.1137 785.9364,-262.4119 781.7041,-272.5282 781.7041,-272.5282"/>
</g>
<!-- Location&#45;&gt;User -->
<g id="edge4" class="edge">
<title>Location&#45;&gt;User</title>
<path fill="none" stroke="#b92232" d="M458.5282,-435.6067C475.8828,-448.5011 494.0519,-462.1738 511.3245,-475.3342"/>
<ellipse fill="none" stroke="#b92232" cx="454.8769" cy="-432.8988" rx="4" ry="4"/>
<polygon fill="#b92232" stroke="#b92232" points="511.3913,-475.3851 516.6088,-485.0303 515.3654,-478.4193 519.3396,-481.4535 519.3396,-481.4535 519.3396,-481.4535 515.3654,-478.4193 522.0703,-477.8768 511.3913,-475.3851 511.3913,-475.3851"/>
</g>
<!-- Passenger -->
<g id="node7" class="node">
<title>Passenger</title>
<path fill="none" stroke="#000000" d="M1093.8254,-330.5C1093.8254,-330.5 1317.55,-330.5 1317.55,-330.5 1323.55,-330.5 1329.55,-336.5 1329.55,-342.5 1329.55,-342.5 1329.55,-404.5 1329.55,-404.5 1329.55,-410.5 1323.55,-416.5 1317.55,-416.5 1317.55,-416.5 1093.8254,-416.5 1093.8254,-416.5 1087.8254,-416.5 1081.8254,-410.5 1081.8254,-404.5 1081.8254,-404.5 1081.8254,-342.5 1081.8254,-342.5 1081.8254,-336.5 1087.8254,-330.5 1093.8254,-330.5"/>
<text text-anchor="middle" x="1205.6877" y="-401.3" font-family="Times,serif" font-size="14.00" fill="#000000">Passenger</text>
<polyline fill="none" stroke="#000000" points="1081.8254,-394.5 1329.55,-394.5 "/>
<text text-anchor="start" x="1089.8254" y="-379.3" font-family="Times,serif" font-size="14.00" fill="#000000">id :integer</text>
<text text-anchor="start" x="1089.8254" y="-365.3" font-family="Times,serif" font-size="14.00" fill="#000000">user_id :integer</text>
<text text-anchor="start" x="1089.8254" y="-351.3" font-family="Times,serif" font-size="14.00" fill="#000000">created_at :timestamp without time zone</text>
<text text-anchor="start" x="1089.8254" y="-337.3" font-family="Times,serif" font-size="14.00" fill="#000000">updated_at :timestamp without time zone</text>
</g>
<!-- Passenger&#45;&gt;Puddle -->
<g id="edge6" class="edge">
<title>Passenger&#45;&gt;Puddle</title>
<path fill="none" stroke="#5d172d" d="M1118.4362,-325.6963C1103.2603,-317.6395 1087.5723,-309.4724 1072.6877,-302 1050.1759,-290.6985 1026.1549,-279.0634 1002.6292,-267.8984"/>
<polygon fill="#5d172d" stroke="#5d172d" points="1118.4774,-325.7182 1125.1861,-334.3925 1122.8899,-328.0697 1127.3025,-330.4212 1127.3025,-330.4212 1127.3025,-330.4212 1122.8899,-328.0697 1129.4188,-326.4499 1118.4774,-325.7182 1118.4774,-325.7182"/>
<polygon fill="#5d172d" stroke="#5d172d" points="1002.3302,-267.757 995.2166,-259.4115 997.8108,-265.618 993.2914,-263.479 993.2914,-263.479 993.2914,-263.479 997.8108,-265.618 991.3663,-267.5464 1002.3302,-267.757 1002.3302,-267.757"/>
</g>
<!-- PuddlePassenger -->
<g id="node10" class="node">
<title>PuddlePassenger</title>
<path fill="none" stroke="#000000" d="M827.8254,-.5C827.8254,-.5 1051.55,-.5 1051.55,-.5 1057.55,-.5 1063.55,-6.5 1063.55,-12.5 1063.55,-12.5 1063.55,-88.5 1063.55,-88.5 1063.55,-94.5 1057.55,-100.5 1051.55,-100.5 1051.55,-100.5 827.8254,-100.5 827.8254,-100.5 821.8254,-100.5 815.8254,-94.5 815.8254,-88.5 815.8254,-88.5 815.8254,-12.5 815.8254,-12.5 815.8254,-6.5 821.8254,-.5 827.8254,-.5"/>
<text text-anchor="middle" x="939.6877" y="-85.3" font-family="Times,serif" font-size="14.00" fill="#000000">PuddlePassenger</text>
<polyline fill="none" stroke="#000000" points="815.8254,-78.5 1063.55,-78.5 "/>
<text text-anchor="start" x="823.8254" y="-63.3" font-family="Times,serif" font-size="14.00" fill="#000000">id :integer</text>
<text text-anchor="start" x="823.8254" y="-49.3" font-family="Times,serif" font-size="14.00" fill="#000000">puddle_id :integer</text>
<text text-anchor="start" x="823.8254" y="-35.3" font-family="Times,serif" font-size="14.00" fill="#000000">passenger_id :integer</text>
<text text-anchor="start" x="823.8254" y="-21.3" font-family="Times,serif" font-size="14.00" fill="#000000">created_at :timestamp without time zone</text>
<text text-anchor="start" x="823.8254" y="-7.3" font-family="Times,serif" font-size="14.00" fill="#000000">updated_at :timestamp without time zone</text>
</g>
<!-- Passenger&#45;&gt;PuddlePassenger -->
<g id="edge5" class="edge">
<title>Passenger&#45;&gt;PuddlePassenger</title>
<path fill="none" stroke="#67f358" d="M1164.7744,-323.8195C1117.025,-265.8381 1038.1726,-170.0887 987.6043,-108.6844"/>
<ellipse fill="none" stroke="#67f358" cx="1167.547" cy="-327.1862" rx="4" ry="4"/>
<polygon fill="#67f358" stroke="#67f358" points="987.3266,-108.3472 984.4432,-97.7671 984.148,-104.4875 980.9695,-100.6278 980.9695,-100.6278 980.9695,-100.6278 984.148,-104.4875 977.4958,-103.4885 987.3266,-108.3472 987.3266,-108.3472"/>
</g>
<!-- Profile -->
<g id="node8" class="node">
<title>Profile</title>
<path fill="none" stroke="#000000" d="M827.8254,-302.5C827.8254,-302.5 1051.55,-302.5 1051.55,-302.5 1057.55,-302.5 1063.55,-308.5 1063.55,-314.5 1063.55,-314.5 1063.55,-432.5 1063.55,-432.5 1063.55,-438.5 1057.55,-444.5 1051.55,-444.5 1051.55,-444.5 827.8254,-444.5 827.8254,-444.5 821.8254,-444.5 815.8254,-438.5 815.8254,-432.5 815.8254,-432.5 815.8254,-314.5 815.8254,-314.5 815.8254,-308.5 821.8254,-302.5 827.8254,-302.5"/>
<text text-anchor="middle" x="939.6877" y="-429.3" font-family="Times,serif" font-size="14.00" fill="#000000">Profile</text>
<polyline fill="none" stroke="#000000" points="815.8254,-422.5 1063.55,-422.5 "/>
<text text-anchor="start" x="823.8254" y="-407.3" font-family="Times,serif" font-size="14.00" fill="#000000">updated_at :timestamp without time zone</text>
<text text-anchor="start" x="823.8254" y="-393.3" font-family="Times,serif" font-size="14.00" fill="#000000">name :character varying</text>
<text text-anchor="start" x="823.8254" y="-379.3" font-family="Times,serif" font-size="14.00" fill="#000000">address :character varying</text>
<text text-anchor="start" x="823.8254" y="-365.3" font-family="Times,serif" font-size="14.00" fill="#000000">phone :character varying</text>
<text text-anchor="start" x="823.8254" y="-351.3" font-family="Times,serif" font-size="14.00" fill="#000000">location :integer</text>
<text text-anchor="start" x="823.8254" y="-337.3" font-family="Times,serif" font-size="14.00" fill="#000000">user_id :integer</text>
<text text-anchor="start" x="823.8254" y="-323.3" font-family="Times,serif" font-size="14.00" fill="#000000">created_at :timestamp without time zone</text>
<text text-anchor="start" x="823.8254" y="-309.3" font-family="Times,serif" font-size="14.00" fill="#000000">id :integer</text>
</g>
<!-- Puddle&#45;&gt;PuddlePassenger -->
<g id="edge7" class="edge">
<title>Puddle&#45;&gt;PuddlePassenger</title>
<path fill="none" stroke="#8aeffe" d="M896.3709,-130.2664C900.0745,-123.4464 903.8033,-116.5799 907.436,-109.8903"/>
<ellipse fill="none" stroke="#8aeffe" cx="894.372" cy="-133.9473" rx="4" ry="4"/>
<polygon fill="#8aeffe" stroke="#8aeffe" points="907.5466,-109.6867 916.2733,-103.0464 909.9327,-105.2928 912.3188,-100.8989 912.3188,-100.8989 912.3188,-100.8989 909.9327,-105.2928 908.3643,-98.7514 907.5466,-109.6867 907.5466,-109.6867"/>
</g>
<!-- User&#45;&gt;Car -->
<g id="edge13" class="edge">
<title>User&#45;&gt;Car</title>
<path fill="none" stroke="#fa8799" d="M729.7143,-533.3139C906.5787,-516.0366 1211.8023,-482.6317 1337.8509,-444.9644"/>
<ellipse fill="none" stroke="#fa8799" cx="725.6848" cy="-533.7062" rx="4" ry="4"/>
<polygon fill="#fa8799" stroke="#fa8799" points="1338.1449,-444.8728 1349.0313,-446.1909 1342.9181,-443.3839 1347.6913,-441.8951 1347.6913,-441.8951 1347.6913,-441.8951 1342.9181,-443.3839 1346.3513,-437.5992 1338.1449,-444.8728 1338.1449,-444.8728"/>
</g>
<!-- User&#45;&gt;Driver -->
<g id="edge9" class="edge">
<title>User&#45;&gt;Driver</title>
<path fill="none" stroke="#8678d0" d="M629.2585,-474.0503C636.3829,-457.9267 643.8178,-441.1004 650.522,-425.9278"/>
<ellipse fill="none" stroke="#8678d0" cx="627.604" cy="-477.7948" rx="4" ry="4"/>
<polygon fill="#8678d0" stroke="#8678d0" points="650.5508,-425.8624 658.7086,-418.5343 652.5717,-421.289 654.5925,-416.7155 654.5925,-416.7155 654.5925,-416.7155 652.5717,-421.289 650.4764,-414.8968 650.5508,-425.8624 650.5508,-425.8624"/>
</g>
<!-- User&#45;&gt;Location -->
<g id="edge8" class="edge">
<title>User&#45;&gt;Location</title>
<path fill="none" stroke="#f11d8a" d="M498.03,-475.3342C480.8801,-462.5232 463.2924,-449.2267 446.8454,-436.6353"/>
<polygon fill="#f11d8a" stroke="#f11d8a" points="498.2211,-475.4766 503.5487,-485.0613 502.2297,-478.4651 506.2384,-481.4535 506.2384,-481.4535 506.2384,-481.4535 502.2297,-478.4651 508.928,-477.8458 498.2211,-475.4766 498.2211,-475.4766"/>
<polygon fill="#f11d8a" stroke="#f11d8a" points="446.8037,-436.6033 441.6093,-426.9458 442.8368,-433.5596 438.87,-430.5159 438.87,-430.5159 438.87,-430.5159 442.8368,-433.5596 436.1306,-434.0861 446.8037,-436.6033 446.8037,-436.6033"/>
</g>
<!-- User&#45;&gt;Passenger -->
<g id="edge11" class="edge">
<title>User&#45;&gt;Passenger</title>
<path fill="none" stroke="#14a24b" d="M729.7435,-527.9001C826.6488,-512.5215 960.3778,-486.1092 1072.6877,-445 1090.2397,-438.5754 1108.3311,-430.1835 1125.3001,-421.4185"/>
<ellipse fill="none" stroke="#14a24b" cx="725.6108" cy="-528.5498" rx="4" ry="4"/>
<polygon fill="#14a24b" stroke="#14a24b" points="1125.753,-421.18 1136.698,-420.5024 1130.1771,-418.8504 1134.6013,-416.5207 1134.6013,-416.5207 1134.6013,-416.5207 1130.1771,-418.8504 1132.5046,-412.539 1125.753,-421.18 1125.753,-421.18"/>
</g>
<!-- User&#45;&gt;Profile -->
<g id="edge12" class="edge">
<title>User&#45;&gt;Profile</title>
<path fill="none" stroke="#e2e23c" d="M728.9126,-483.5133C752.4701,-472.1003 776.8561,-460.1017 806.5741,-445.0276"/>
<ellipse fill="none" stroke="#e2e23c" cx="725.2421" cy="-485.2886" rx="4" ry="4"/>
<polygon fill="#e2e23c" stroke="#e2e23c" points="806.621,-445.0038 817.5745,-444.4825 811.0779,-442.7375 815.5348,-440.4713 815.5348,-440.4713 815.5348,-440.4713 811.0779,-442.7375 813.4952,-436.46 806.621,-445.0038 806.621,-445.0038"/>
</g>
<!-- User&#45;&gt;Puddle -->
<g id="edge10" class="edge">
<title>User&#45;&gt;Puddle</title>
<path fill="none" stroke="#8e5972" d="M551.6416,-472.1746C525.5014,-420.2803 504.5196,-351.4089 540.6877,-302 562.1872,-272.6298 639.4094,-247.811 712.2479,-230.185"/>
<polygon fill="#8e5972" stroke="#8e5972" points="551.7872,-472.4551 552.4007,-483.4038 554.0909,-476.8928 556.3946,-481.3305 556.3946,-481.3305 556.3946,-481.3305 554.0909,-476.8928 560.3885,-479.2572 551.7872,-472.4551 551.7872,-472.4551"/>
<polygon fill="#8e5972" stroke="#8e5972" points="712.2993,-230.1728 723.0701,-232.2321 717.1631,-229.0137 722.0269,-227.8546 722.0269,-227.8546 722.0269,-227.8546 717.1631,-229.0137 720.9837,-223.4772 712.2993,-230.1728 712.2993,-230.1728"/>
</g>
</g>
</svg>
