<?xml version="1.0" encoding="UTF-8" standalone="no"?>
<!DOCTYPE svg PUBLIC "-//W3C//DTD SVG 1.1//EN"
 "http://www.w3.org/Graphics/SVG/1.1/DTD/svg11.dtd">
<!-- Generated by graphviz version 2.40.1 (20161225.0304)
 -->
<!-- Title: models_diagram Pages: 1 -->
<svg width="1092pt" height="892pt"
 viewBox="0.00 0.00 1091.72 892.00" xmlns="http://www.w3.org/2000/svg" xmlns:xlink="http://www.w3.org/1999/xlink">
<g id="graph0" class="graph" transform="scale(1 1) rotate(0) translate(4 888)">
<title>models_diagram</title>
<polygon fill="transparent" stroke="transparent" points="-4,4 -4,-888 1087.7246,-888 1087.7246,4 -4,4"/>
<!-- _diagram_info -->
<g id="node1" class="node">
<title>_diagram_info</title>
<text text-anchor="start" x="28.1746" y="-862.6" font-family="Times,serif" font-size="13.00" fill="#000000">Models diagram</text>
<text text-anchor="start" x="28.1746" y="-849.6" font-family="Times,serif" font-size="13.00" fill="#000000">Date: Jan 09 2017 &#45; 20:21</text>
<text text-anchor="start" x="28.1746" y="-836.6" font-family="Times,serif" font-size="13.00" fill="#000000">Migration version: 20170109213403</text>
<text text-anchor="start" x="28.1746" y="-823.6" font-family="Times,serif" font-size="13.00" fill="#000000">Generated by RailRoady 1.5.2</text>
<text text-anchor="start" x="28.1746" y="-810.6" font-family="Times,serif" font-size="13.00" fill="#000000">http://railroady.prestonlee.com</text>
</g>
<!-- ApplicationRecord -->
<g id="node2" class="node">
<title>ApplicationRecord</title>
<ellipse fill="none" stroke="#000000" cx="322.8623" cy="-840.5" rx="77.2916" ry="18"/>
<text text-anchor="middle" x="322.8623" y="-836.3" font-family="Times,serif" font-size="14.00" fill="#000000">ApplicationRecord</text>
</g>
<!-- Car -->
<g id="node3" class="node">
<title>Car</title>
<path fill="none" stroke="#000000" d="M12,-302.5C12,-302.5 235.7246,-302.5 235.7246,-302.5 241.7246,-302.5 247.7246,-308.5 247.7246,-314.5 247.7246,-314.5 247.7246,-432.5 247.7246,-432.5 247.7246,-438.5 241.7246,-444.5 235.7246,-444.5 235.7246,-444.5 12,-444.5 12,-444.5 6,-444.5 0,-438.5 0,-432.5 0,-432.5 0,-314.5 0,-314.5 0,-308.5 6,-302.5 12,-302.5"/>
<text text-anchor="middle" x="123.8623" y="-429.3" font-family="Times,serif" font-size="14.00" fill="#000000">Car</text>
<polyline fill="none" stroke="#000000" points="0,-422.5 247.7246,-422.5 "/>
<text text-anchor="start" x="8" y="-407.3" font-family="Times,serif" font-size="14.00" fill="#000000">updated_at :timestamp without time zone</text>
<text text-anchor="start" x="8" y="-393.3" font-family="Times,serif" font-size="14.00" fill="#000000">make :character varying</text>
<text text-anchor="start" x="8" y="-379.3" font-family="Times,serif" font-size="14.00" fill="#000000">model :character varying</text>
<text text-anchor="start" x="8" y="-365.3" font-family="Times,serif" font-size="14.00" fill="#000000">year :integer</text>
<text text-anchor="start" x="8" y="-351.3" font-family="Times,serif" font-size="14.00" fill="#000000">color :character varying</text>
<text text-anchor="start" x="8" y="-337.3" font-family="Times,serif" font-size="14.00" fill="#000000">user_id :integer</text>
<text text-anchor="start" x="8" y="-323.3" font-family="Times,serif" font-size="14.00" fill="#000000">created_at :timestamp without time zone</text>
<text text-anchor="start" x="8" y="-309.3" font-family="Times,serif" font-size="14.00" fill="#000000">id :integer</text>
</g>
<!-- Company -->
<g id="node4" class="node">
<title>Company</title>
<path fill="none" stroke="#000000" d="M430,-797.5C430,-797.5 653.7246,-797.5 653.7246,-797.5 659.7246,-797.5 665.7246,-803.5 665.7246,-809.5 665.7246,-809.5 665.7246,-871.5 665.7246,-871.5 665.7246,-877.5 659.7246,-883.5 653.7246,-883.5 653.7246,-883.5 430,-883.5 430,-883.5 424,-883.5 418,-877.5 418,-871.5 418,-871.5 418,-809.5 418,-809.5 418,-803.5 424,-797.5 430,-797.5"/>
<text text-anchor="middle" x="541.8623" y="-868.3" font-family="Times,serif" font-size="14.00" fill="#000000">Company</text>
<polyline fill="none" stroke="#000000" points="418,-861.5 665.7246,-861.5 "/>
<text text-anchor="start" x="426" y="-846.3" font-family="Times,serif" font-size="14.00" fill="#000000">id :integer</text>
<text text-anchor="start" x="426" y="-832.3" font-family="Times,serif" font-size="14.00" fill="#000000">name :character varying</text>
<text text-anchor="start" x="426" y="-818.3" font-family="Times,serif" font-size="14.00" fill="#000000">created_at :timestamp without time zone</text>
<text text-anchor="start" x="426" y="-804.3" font-family="Times,serif" font-size="14.00" fill="#000000">updated_at :timestamp without time zone</text>
</g>
<!-- Location -->
<g id="node6" class="node">
<title>Location</title>
<path fill="none" stroke="#000000" d="M354,-646.5C354,-646.5 577.7246,-646.5 577.7246,-646.5 583.7246,-646.5 589.7246,-652.5 589.7246,-658.5 589.7246,-658.5 589.7246,-748.5 589.7246,-748.5 589.7246,-754.5 583.7246,-760.5 577.7246,-760.5 577.7246,-760.5 354,-760.5 354,-760.5 348,-760.5 342,-754.5 342,-748.5 342,-748.5 342,-658.5 342,-658.5 342,-652.5 348,-646.5 354,-646.5"/>
<text text-anchor="middle" x="465.8623" y="-745.3" font-family="Times,serif" font-size="14.00" fill="#000000">Location</text>
<polyline fill="none" stroke="#000000" points="342,-738.5 589.7246,-738.5 "/>
<text text-anchor="start" x="350" y="-723.3" font-family="Times,serif" font-size="14.00" fill="#000000">id :integer</text>
<text text-anchor="start" x="350" y="-709.3" font-family="Times,serif" font-size="14.00" fill="#000000">name :character varying</text>
<text text-anchor="start" x="350" y="-695.3" font-family="Times,serif" font-size="14.00" fill="#000000">address :character varying</text>
<text text-anchor="start" x="350" y="-681.3" font-family="Times,serif" font-size="14.00" fill="#000000">company_id :integer</text>
<text text-anchor="start" x="350" y="-667.3" font-family="Times,serif" font-size="14.00" fill="#000000">created_at :timestamp without time zone</text>
<text text-anchor="start" x="350" y="-653.3" font-family="Times,serif" font-size="14.00" fill="#000000">updated_at :timestamp without time zone</text>
</g>
<!-- Company&#45;&gt;Location -->
<g id="edge1" class="edge">
<title>Company&#45;&gt;Location</title>
<path fill="none" stroke="#2ce054" d="M513.8241,-789.9575C510.1803,-783.3891 506.405,-776.5836 502.6456,-769.8067"/>
<ellipse fill="none" stroke="#2ce054" cx="515.875" cy="-793.6545" rx="4" ry="4"/>
<polygon fill="#2ce054" stroke="#2ce054" points="502.3939,-769.3529 501.4779,-758.4253 499.9683,-764.9806 497.5428,-760.6083 497.5428,-760.6083 497.5428,-760.6083 499.9683,-764.9806 493.6078,-762.7913 502.3939,-769.3529 502.3939,-769.3529"/>
</g>
<!-- User -->
<g id="node11" class="node">
<title>User</title>
<path fill="none" stroke="#000000" d="M430,-481.5C430,-481.5 653.7246,-481.5 653.7246,-481.5 659.7246,-481.5 665.7246,-487.5 665.7246,-493.5 665.7246,-493.5 665.7246,-597.5 665.7246,-597.5 665.7246,-603.5 659.7246,-609.5 653.7246,-609.5 653.7246,-609.5 430,-609.5 430,-609.5 424,-609.5 418,-603.5 418,-597.5 418,-597.5 418,-493.5 418,-493.5 418,-487.5 424,-481.5 430,-481.5"/>
<text text-anchor="middle" x="541.8623" y="-594.3" font-family="Times,serif" font-size="14.00" fill="#000000">User</text>
<polyline fill="none" stroke="#000000" points="418,-587.5 665.7246,-587.5 "/>
<text text-anchor="start" x="426" y="-572.3" font-family="Times,serif" font-size="14.00" fill="#000000">location_id :integer</text>
<text text-anchor="start" x="426" y="-558.3" font-family="Times,serif" font-size="14.00" fill="#000000">email :character varying</text>
<text text-anchor="start" x="426" y="-544.3" font-family="Times,serif" font-size="14.00" fill="#000000">password_digest :character varying</text>
<text text-anchor="start" x="426" y="-530.3" font-family="Times,serif" font-size="14.00" fill="#000000">id :integer</text>
<text text-anchor="start" x="426" y="-516.3" font-family="Times,serif" font-size="14.00" fill="#000000">admin :boolean</text>
<text text-anchor="start" x="426" y="-502.3" font-family="Times,serif" font-size="14.00" fill="#000000">created_at :timestamp without time zone</text>
<text text-anchor="start" x="426" y="-488.3" font-family="Times,serif" font-size="14.00" fill="#000000">updated_at :timestamp without time zone</text>
</g>
<!-- Company&#45;&gt;User -->
<g id="edge2" class="edge">
<title>Company&#45;&gt;User</title>
<path fill="none" stroke="#298957" d="M585.659,-788.78C591.0756,-779.9836 595.7829,-770.5797 598.8623,-761 614.5036,-712.341 611.9013,-695.4199 598.8623,-646 596.4506,-636.8593 592.995,-627.678 588.9617,-618.7809"/>
<polygon fill="#298957" stroke="#298957" points="585.5196,-788.9928 576.2756,-794.8919 582.7797,-793.1753 580.0398,-797.3578 580.0398,-797.3578 580.0398,-797.3578 582.7797,-793.1753 583.8041,-799.8237 585.5196,-788.9928 585.5196,-788.9928"/>
<polygon fill="#298957" stroke="#298957" points="588.8949,-618.6415 588.6261,-607.679 586.7319,-614.1336 584.5689,-609.6256 584.5689,-609.6256 584.5689,-609.6256 586.7319,-614.1336 580.5118,-611.5723 588.8949,-618.6415 588.8949,-618.6415"/>
</g>
<!-- Driver -->
<g id="node5" class="node">
<title>Driver</title>
<path fill="none" stroke="#000000" d="M278,-330.5C278,-330.5 501.7246,-330.5 501.7246,-330.5 507.7246,-330.5 513.7246,-336.5 513.7246,-342.5 513.7246,-342.5 513.7246,-404.5 513.7246,-404.5 513.7246,-410.5 507.7246,-416.5 501.7246,-416.5 501.7246,-416.5 278,-416.5 278,-416.5 272,-416.5 266,-410.5 266,-404.5 266,-404.5 266,-342.5 266,-342.5 266,-336.5 272,-330.5 278,-330.5"/>
<text text-anchor="middle" x="389.8623" y="-401.3" font-family="Times,serif" font-size="14.00" fill="#000000">Driver</text>
<polyline fill="none" stroke="#000000" points="266,-394.5 513.7246,-394.5 "/>
<text text-anchor="start" x="274" y="-379.3" font-family="Times,serif" font-size="14.00" fill="#000000">id :integer</text>
<text text-anchor="start" x="274" y="-365.3" font-family="Times,serif" font-size="14.00" fill="#000000">user_id :integer</text>
<text text-anchor="start" x="274" y="-351.3" font-family="Times,serif" font-size="14.00" fill="#000000">created_at :timestamp without time zone</text>
<text text-anchor="start" x="274" y="-337.3" font-family="Times,serif" font-size="14.00" fill="#000000">updated_at :timestamp without time zone</text>
</g>
<!-- Puddle -->
<g id="node9" class="node">
<title>Puddle</title>
<path fill="none" stroke="#000000" d="M545.3413,-137.5C545.3413,-137.5 792.3833,-137.5 792.3833,-137.5 798.3833,-137.5 804.3833,-143.5 804.3833,-149.5 804.3833,-149.5 804.3833,-253.5 804.3833,-253.5 804.3833,-259.5 798.3833,-265.5 792.3833,-265.5 792.3833,-265.5 545.3413,-265.5 545.3413,-265.5 539.3413,-265.5 533.3413,-259.5 533.3413,-253.5 533.3413,-253.5 533.3413,-149.5 533.3413,-149.5 533.3413,-143.5 539.3413,-137.5 545.3413,-137.5"/>
<text text-anchor="middle" x="668.8623" y="-250.3" font-family="Times,serif" font-size="14.00" fill="#000000">Puddle</text>
<polyline fill="none" stroke="#000000" points="533.3413,-243.5 804.3833,-243.5 "/>
<text text-anchor="start" x="541.3413" y="-228.3" font-family="Times,serif" font-size="14.00" fill="#000000">distance :double precision</text>
<text text-anchor="start" x="541.3413" y="-214.3" font-family="Times,serif" font-size="14.00" fill="#000000">departure_time :timestamp without time zone</text>
<text text-anchor="start" x="541.3413" y="-200.3" font-family="Times,serif" font-size="14.00" fill="#000000">seats :integer</text>
<text text-anchor="start" x="541.3413" y="-186.3" font-family="Times,serif" font-size="14.00" fill="#000000">id :integer</text>
<text text-anchor="start" x="541.3413" y="-172.3" font-family="Times,serif" font-size="14.00" fill="#000000">driver_id :integer</text>
<text text-anchor="start" x="541.3413" y="-158.3" font-family="Times,serif" font-size="14.00" fill="#000000">created_at :timestamp without time zone</text>
<text text-anchor="start" x="541.3413" y="-144.3" font-family="Times,serif" font-size="14.00" fill="#000000">updated_at :timestamp without time zone</text>
</g>
<!-- Driver&#45;&gt;Puddle -->
<g id="edge3" class="edge">
<title>Driver&#45;&gt;Puddle</title>
<path fill="none" stroke="#90b253" d="M467.0888,-325.8908C494.6464,-308.9019 526.2836,-289.398 556.208,-270.95"/>
<ellipse fill="none" stroke="#90b253" cx="463.3106" cy="-328.22" rx="4" ry="4"/>
<polygon fill="#90b253" stroke="#90b253" points="556.5017,-270.769 567.3756,-269.3517 560.7579,-268.1451 565.0141,-265.5211 565.0141,-265.5211 565.0141,-265.5211 560.7579,-268.1451 562.6525,-261.6906 556.5017,-270.769 556.5017,-270.769"/>
</g>
<!-- Location&#45;&gt;User -->
<g id="edge4" class="edge">
<title>Location&#45;&gt;User</title>
<path fill="none" stroke="#8f2d12" d="M496.8362,-639.107C500.0454,-632.4352 503.3238,-625.6195 506.5756,-618.8591"/>
<ellipse fill="none" stroke="#8f2d12" cx="495.034" cy="-642.8537" rx="4" ry="4"/>
<polygon fill="#8f2d12" stroke="#8f2d12" points="506.6497,-618.7051 515.0397,-611.6441 508.817,-614.1993 510.9844,-609.6935 510.9844,-609.6935 510.9844,-609.6935 508.817,-614.1993 506.9292,-607.7428 506.6497,-618.7051 506.6497,-618.7051"/>
</g>
<!-- Passenger -->
<g id="node7" class="node">
<title>Passenger</title>
<path fill="none" stroke="#000000" d="M848,-330.5C848,-330.5 1071.7246,-330.5 1071.7246,-330.5 1077.7246,-330.5 1083.7246,-336.5 1083.7246,-342.5 1083.7246,-342.5 1083.7246,-404.5 1083.7246,-404.5 1083.7246,-410.5 1077.7246,-416.5 1071.7246,-416.5 1071.7246,-416.5 848,-416.5 848,-416.5 842,-416.5 836,-410.5 836,-404.5 836,-404.5 836,-342.5 836,-342.5 836,-336.5 842,-330.5 848,-330.5"/>
<text text-anchor="middle" x="959.8623" y="-401.3" font-family="Times,serif" font-size="14.00" fill="#000000">Passenger</text>
<polyline fill="none" stroke="#000000" points="836,-394.5 1083.7246,-394.5 "/>
<text text-anchor="start" x="844" y="-379.3" font-family="Times,serif" font-size="14.00" fill="#000000">id :integer</text>
<text text-anchor="start" x="844" y="-365.3" font-family="Times,serif" font-size="14.00" fill="#000000">user_id :integer</text>
<text text-anchor="start" x="844" y="-351.3" font-family="Times,serif" font-size="14.00" fill="#000000">created_at :timestamp without time zone</text>
<text text-anchor="start" x="844" y="-337.3" font-family="Times,serif" font-size="14.00" fill="#000000">updated_at :timestamp without time zone</text>
</g>
<!-- Passenger&#45;&gt;Puddle -->
<g id="edge6" class="edge">
<title>Passenger&#45;&gt;Puddle</title>
<path fill="none" stroke="#21c899" d="M878.1126,-325.1806C849.4955,-308.266 816.7774,-288.9275 785.8484,-270.6464"/>
<polygon fill="#21c899" stroke="#21c899" points="878.1976,-325.2308 884.5166,-334.1931 882.502,-327.775 886.8063,-330.3191 886.8063,-330.3191 886.8063,-330.3191 882.502,-327.775 889.0961,-326.4452 878.1976,-325.2308 878.1976,-325.2308"/>
<polygon fill="#21c899" stroke="#21c899" points="785.7858,-270.6095 779.4669,-261.6472 781.4815,-268.0653 777.1771,-265.5211 777.1771,-265.5211 777.1771,-265.5211 781.4815,-268.0653 774.8874,-269.3951 785.7858,-270.6095 785.7858,-270.6095"/>
</g>
<!-- PuddlePassenger -->
<g id="node10" class="node">
<title>PuddlePassenger</title>
<path fill="none" stroke="#000000" d="M639,-.5C639,-.5 862.7246,-.5 862.7246,-.5 868.7246,-.5 874.7246,-6.5 874.7246,-12.5 874.7246,-12.5 874.7246,-88.5 874.7246,-88.5 874.7246,-94.5 868.7246,-100.5 862.7246,-100.5 862.7246,-100.5 639,-100.5 639,-100.5 633,-100.5 627,-94.5 627,-88.5 627,-88.5 627,-12.5 627,-12.5 627,-6.5 633,-.5 639,-.5"/>
<text text-anchor="middle" x="750.8623" y="-85.3" font-family="Times,serif" font-size="14.00" fill="#000000">PuddlePassenger</text>
<polyline fill="none" stroke="#000000" points="627,-78.5 874.7246,-78.5 "/>
<text text-anchor="start" x="635" y="-63.3" font-family="Times,serif" font-size="14.00" fill="#000000">id :integer</text>
<text text-anchor="start" x="635" y="-49.3" font-family="Times,serif" font-size="14.00" fill="#000000">puddle_id :integer</text>
<text text-anchor="start" x="635" y="-35.3" font-family="Times,serif" font-size="14.00" fill="#000000">passenger_id :integer</text>
<text text-anchor="start" x="635" y="-21.3" font-family="Times,serif" font-size="14.00" fill="#000000">created_at :timestamp without time zone</text>
<text text-anchor="start" x="635" y="-7.3" font-family="Times,serif" font-size="14.00" fill="#000000">updated_at :timestamp without time zone</text>
</g>
<!-- Passenger&#45;&gt;PuddlePassenger -->
<g id="edge5" class="edge">
<title>Passenger&#45;&gt;PuddlePassenger</title>
<path fill="none" stroke="#bd2ea8" d="M930.3382,-323.2126C901.5894,-274.8495 856.1622,-200.002 813.8623,-137 807.7572,-127.907 801.1229,-118.4147 794.527,-109.1893"/>
<ellipse fill="none" stroke="#bd2ea8" cx="932.4149" cy="-326.7116" rx="4" ry="4"/>
<polygon fill="#bd2ea8" stroke="#bd2ea8" points="794.3385,-108.9273 792.1489,-98.1822 791.4175,-104.8692 788.4966,-100.8111 788.4966,-100.8111 788.4966,-100.8111 791.4175,-104.8692 784.8443,-103.44 794.3385,-108.9273 794.3385,-108.9273"/>
</g>
<!-- Profile -->
<g id="node8" class="node">
<title>Profile</title>
<path fill="none" stroke="#000000" d="M582,-309.5C582,-309.5 805.7246,-309.5 805.7246,-309.5 811.7246,-309.5 817.7246,-315.5 817.7246,-321.5 817.7246,-321.5 817.7246,-425.5 817.7246,-425.5 817.7246,-431.5 811.7246,-437.5 805.7246,-437.5 805.7246,-437.5 582,-437.5 582,-437.5 576,-437.5 570,-431.5 570,-425.5 570,-425.5 570,-321.5 570,-321.5 570,-315.5 576,-309.5 582,-309.5"/>
<text text-anchor="middle" x="693.8623" y="-422.3" font-family="Times,serif" font-size="14.00" fill="#000000">Profile</text>
<polyline fill="none" stroke="#000000" points="570,-415.5 817.7246,-415.5 "/>
<text text-anchor="start" x="578" y="-400.3" font-family="Times,serif" font-size="14.00" fill="#000000">phone :integer</text>
<text text-anchor="start" x="578" y="-386.3" font-family="Times,serif" font-size="14.00" fill="#000000">name :character varying</text>
<text text-anchor="start" x="578" y="-372.3" font-family="Times,serif" font-size="14.00" fill="#000000">address :character varying</text>
<text text-anchor="start" x="578" y="-358.3" font-family="Times,serif" font-size="14.00" fill="#000000">id :integer</text>
<text text-anchor="start" x="578" y="-344.3" font-family="Times,serif" font-size="14.00" fill="#000000">user_id :integer</text>
<text text-anchor="start" x="578" y="-330.3" font-family="Times,serif" font-size="14.00" fill="#000000">created_at :timestamp without time zone</text>
<text text-anchor="start" x="578" y="-316.3" font-family="Times,serif" font-size="14.00" fill="#000000">updated_at :timestamp without time zone</text>
</g>
<!-- Puddle&#45;&gt;PuddlePassenger -->
<g id="edge7" class="edge">
<title>Puddle&#45;&gt;PuddlePassenger</title>
<path fill="none" stroke="#a92ddf" d="M707.5455,-130.2664C711.249,-123.4464 714.9779,-116.5799 718.6106,-109.8903"/>
<ellipse fill="none" stroke="#a92ddf" cx="705.5466" cy="-133.9473" rx="4" ry="4"/>
<polygon fill="#a92ddf" stroke="#a92ddf" points="718.7211,-109.6867 727.4479,-103.0464 721.1073,-105.2928 723.4934,-100.8989 723.4934,-100.8989 723.4934,-100.8989 721.1073,-105.2928 719.5388,-98.7514 718.7211,-109.6867 718.7211,-109.6867"/>
</g>
<!-- User&#45;&gt;Car -->
<g id="edge12" class="edge">
<title>User&#45;&gt;Car</title>
<path fill="none" stroke="#a2af05" d="M410.0788,-503.7713C363.8703,-487.9719 311.7632,-468.8329 256.9805,-444.944"/>
<ellipse fill="none" stroke="#a2af05" cx="414.0627" cy="-505.1271" rx="4" ry="4"/>
<polygon fill="#a2af05" stroke="#a2af05" points="256.9609,-444.9354 249.6184,-436.7906 252.3839,-442.9227 247.8069,-440.9099 247.8069,-440.9099 247.8069,-440.9099 252.3839,-442.9227 245.9954,-445.0292 256.9609,-444.9354 256.9609,-444.9354"/>
</g>
<!-- User&#45;&gt;Driver -->
<g id="edge8" class="edge">
<title>User&#45;&gt;Driver</title>
<path fill="none" stroke="#942831" d="M479.8563,-475.3353C464.7808,-458.2762 448.9444,-440.3561 434.8315,-424.3862"/>
<ellipse fill="none" stroke="#942831" cx="482.6143" cy="-478.4562" rx="4" ry="4"/>
<polygon fill="#942831" stroke="#942831" points="434.6748,-424.2088 431.4248,-413.7356 431.3638,-420.4622 428.0528,-416.7155 428.0528,-416.7155 428.0528,-416.7155 431.3638,-420.4622 424.6808,-419.6954 434.6748,-424.2088 434.6748,-424.2088"/>
</g>
<!-- User&#45;&gt;Passenger -->
<g id="edge10" class="edge">
<title>User&#45;&gt;Passenger</title>
<path fill="none" stroke="#2f34ad" d="M673.6458,-503.7713C722.4267,-487.0923 777.7813,-466.6916 826.8623,-445 842.7974,-437.9574 859.4221,-429.7528 875.3044,-421.4642"/>
<ellipse fill="none" stroke="#2f34ad" cx="669.6619" cy="-505.1271" rx="4" ry="4"/>
<polygon fill="#2f34ad" stroke="#2f34ad" points="875.7142,-421.2481 886.6587,-420.5626 880.1367,-418.9153 884.5591,-416.5824 884.5591,-416.5824 884.5591,-416.5824 880.1367,-418.9153 882.4595,-412.6022 875.7142,-421.2481 875.7142,-421.2481"/>
</g>
<!-- User&#45;&gt;Profile -->
<g id="edge11" class="edge">
<title>User&#45;&gt;Profile</title>
<path fill="none" stroke="#753eae" d="M603.8442,-475.3626C612.642,-465.4072 621.6994,-455.158 630.5226,-445.1739"/>
<ellipse fill="none" stroke="#753eae" cx="601.1103" cy="-478.4562" rx="4" ry="4"/>
<polygon fill="#753eae" stroke="#753eae" points="630.5938,-445.0933 640.5878,-440.5798 633.9048,-441.3466 637.2158,-437.5999 637.2158,-437.5999 637.2158,-437.5999 633.9048,-441.3466 633.8439,-434.62 630.5938,-445.0933 630.5938,-445.0933"/>
</g>
<!-- User&#45;&gt;Puddle -->
<g id="edge9" class="edge">
<title>User&#45;&gt;Puddle</title>
<path fill="none" stroke="#bfdd50" d="M534.03,-471.3162C531.9084,-421.1089 535.4747,-354.6084 560.8623,-302 565.7267,-291.92 572.0774,-282.3528 579.2651,-273.4172"/>
<polygon fill="#bfdd50" stroke="#bfdd50" points="534.0374,-471.464 530.05,-481.6792 534.2908,-476.4576 534.5442,-481.4511 534.5442,-481.4511 534.5442,-481.4511 534.2908,-476.4576 539.0385,-481.2231 534.0374,-471.464 534.0374,-471.464"/>
<polygon fill="#bfdd50" stroke="#bfdd50" points="579.3148,-273.3586 589.2136,-268.6399 582.5478,-269.5444 585.7808,-265.7302 585.7808,-265.7302 585.7808,-265.7302 582.5478,-269.5444 582.348,-262.8205 579.3148,-273.3586 579.3148,-273.3586"/>
</g>
</g>
</svg>
