<?xml version="1.0" encoding="UTF-8" standalone="no"?>
<!DOCTYPE svg PUBLIC "-//W3C//DTD SVG 1.1//EN"
 "http://www.w3.org/Graphics/SVG/1.1/DTD/svg11.dtd">
<!-- Generated by graphviz version 2.40.1 (20161225.0304)
 -->
<!-- Title: models_diagram Pages: 1 -->
<svg width="812pt" height="369pt"
 viewBox="0.00 0.00 811.69 369.00" xmlns="http://www.w3.org/2000/svg" xmlns:xlink="http://www.w3.org/1999/xlink">
<g id="graph0" class="graph" transform="scale(1 1) rotate(0) translate(4 365)">
<title>models_diagram</title>
<polygon fill="transparent" stroke="transparent" points="-4,4 -4,-365 807.6877,-365 807.6877,4 -4,4"/>
<!-- _diagram_info -->
<g id="node1" class="node">
<title>_diagram_info</title>
<text text-anchor="start" x="8" y="-346.6" font-family="Times,serif" font-size="13.00" fill="#000000">Models diagram</text>
<text text-anchor="start" x="8" y="-333.6" font-family="Times,serif" font-size="13.00" fill="#000000">Date: Jan 12 2017 &#45; 09:55</text>
<text text-anchor="start" x="8" y="-320.6" font-family="Times,serif" font-size="13.00" fill="#000000">Migration version: 20170109213403</text>
<text text-anchor="start" x="8" y="-307.6" font-family="Times,serif" font-size="13.00" fill="#000000">Generated by RailRoady 1.5.2</text>
<text text-anchor="start" x="8" y="-294.6" font-family="Times,serif" font-size="13.00" fill="#000000">http://railroady.prestonlee.com</text>
</g>
<!-- ApplicationRecord -->
<g id="node2" class="node">
<title>ApplicationRecord</title>
<ellipse fill="none" stroke="#000000" cx="302.6877" cy="-324.5" rx="77.2916" ry="18"/>
<text text-anchor="middle" x="302.6877" y="-320.3" font-family="Times,serif" font-size="14.00" fill="#000000">ApplicationRecord</text>
</g>
<!-- Car -->
<g id="node3" class="node">
<title>Car</title>
<ellipse fill="none" stroke="#000000" cx="776.6877" cy="-162" rx="27" ry="18"/>
<text text-anchor="middle" x="776.6877" y="-157.8" font-family="Times,serif" font-size="14.00" fill="#000000">Car</text>
</g>
<!-- Company -->
<g id="node4" class="node">
<title>Company</title>
<ellipse fill="none" stroke="#000000" cx="442.6877" cy="-324.5" rx="44.4923" ry="18"/>
<text text-anchor="middle" x="442.6877" y="-320.3" font-family="Times,serif" font-size="14.00" fill="#000000">Company</text>
</g>
<!-- Location -->
<g id="node6" class="node">
<title>Location</title>
<ellipse fill="none" stroke="#000000" cx="373.6877" cy="-162" rx="41.5766" ry="18"/>
<text text-anchor="middle" x="373.6877" y="-157.8" font-family="Times,serif" font-size="14.00" fill="#000000">Location</text>
</g>
<!-- Company&#45;&gt;Location -->
<g id="edge1" class="edge">
<title>Company&#45;&gt;Location</title>
<path fill="none" stroke="#95d66e" d="M431.8691,-299.0213C419.1986,-269.1813 398.2923,-219.9456 385.2923,-189.3297"/>
<ellipse fill="none" stroke="#95d66e" cx="433.4765" cy="-302.8069" rx="4" ry="4"/>
<polygon fill="#95d66e" stroke="#95d66e" points="385.2783,-189.2965 385.5119,-178.3331 383.3241,-184.6942 381.3698,-180.0919 381.3698,-180.0919 381.3698,-180.0919 383.3241,-184.6942 377.2278,-181.8507 385.2783,-189.2965 385.2783,-189.2965"/>
</g>
<!-- User -->
<g id="node11" class="node">
<title>User</title>
<ellipse fill="none" stroke="#000000" cx="473.6877" cy="-234" rx="27" ry="18"/>
<text text-anchor="middle" x="473.6877" y="-229.8" font-family="Times,serif" font-size="14.00" fill="#000000">User</text>
</g>
<!-- Company&#45;&gt;User -->
<g id="edge2" class="edge">
<title>Company&#45;&gt;User</title>
<path fill="none" stroke="#8bb6a3" d="M451.5215,-298.7112C455.4919,-287.1202 460.1832,-273.4245 464.2253,-261.6242"/>
<ellipse fill="none" stroke="#8bb6a3" cx="450.1086" cy="-302.836" rx="4" ry="4"/>
<polygon fill="#8bb6a3" stroke="#8bb6a3" points="464.3352,-261.3031 471.833,-253.301 465.9555,-256.5729 467.5759,-251.8427 467.5759,-251.8427 467.5759,-251.8427 465.9555,-256.5729 463.3187,-250.3845 464.3352,-261.3031 464.3352,-261.3031"/>
</g>
<!-- Driver -->
<g id="node5" class="node">
<title>Driver</title>
<ellipse fill="none" stroke="#000000" cx="504.6877" cy="-162" rx="33.3752" ry="18"/>
<text text-anchor="middle" x="504.6877" y="-157.8" font-family="Times,serif" font-size="14.00" fill="#000000">Driver</text>
</g>
<!-- Puddle -->
<g id="node9" class="node">
<title>Puddle</title>
<ellipse fill="none" stroke="#000000" cx="563.6877" cy="-90" rx="34.8458" ry="18"/>
<text text-anchor="middle" x="563.6877" y="-85.8" font-family="Times,serif" font-size="14.00" fill="#000000">Puddle</text>
</g>
<!-- Driver&#45;&gt;Puddle -->
<g id="edge3" class="edge">
<title>Driver&#45;&gt;Puddle</title>
<path fill="none" stroke="#54ce3f" d="M523.5319,-139.0038C529.9371,-131.1872 537.1167,-122.4257 543.6144,-114.4963"/>
<ellipse fill="none" stroke="#54ce3f" cx="520.9071" cy="-142.2069" rx="4" ry="4"/>
<polygon fill="#54ce3f" stroke="#54ce3f" points="543.7396,-114.3435 553.5585,-109.4609 546.9087,-110.4761 550.0779,-106.6087 550.0779,-106.6087 550.0779,-106.6087 546.9087,-110.4761 546.5972,-103.7564 543.7396,-114.3435 543.7396,-114.3435"/>
</g>
<!-- Location&#45;&gt;User -->
<g id="edge4" class="edge">
<title>Location&#45;&gt;User</title>
<path fill="none" stroke="#b498c6" d="M406.1425,-181.0237C420.6385,-190.8179 437.3204,-202.7864 450.5474,-212.8678"/>
<ellipse fill="none" stroke="#b498c6" cx="402.5537" cy="-178.6285" rx="4" ry="4"/>
<polygon fill="#b498c6" stroke="#b498c6" points="450.658,-212.9536 455.8028,-222.6377 454.6092,-216.0176 458.5604,-219.0816 458.5604,-219.0816 458.5604,-219.0816 454.6092,-216.0176 461.318,-215.5255 450.658,-212.9536 450.658,-212.9536"/>
</g>
<!-- Passenger -->
<g id="node7" class="node">
<title>Passenger</title>
<ellipse fill="none" stroke="#000000" cx="686.6877" cy="-162" rx="45.4441" ry="18"/>
<text text-anchor="middle" x="686.6877" y="-157.8" font-family="Times,serif" font-size="14.00" fill="#000000">Passenger</text>
</g>
<!-- Passenger&#45;&gt;Puddle -->
<g id="edge6" class="edge">
<title>Passenger&#45;&gt;Puddle</title>
<path fill="none" stroke="#f36d74" d="M652.3424,-141.8954C634.6144,-131.518 613.1195,-118.9357 595.7351,-108.7594"/>
<polygon fill="#f36d74" stroke="#f36d74" points="652.5719,-142.0297 658.9287,-150.9651 656.887,-144.5556 661.2021,-147.0816 661.2021,-147.0816 661.2021,-147.0816 656.887,-144.5556 663.4754,-143.198 652.5719,-142.0297 652.5719,-142.0297"/>
<polygon fill="#f36d74" stroke="#f36d74" points="595.6907,-108.7335 589.3338,-99.798 591.3756,-106.2075 587.0605,-103.6816 587.0605,-103.6816 587.0605,-103.6816 591.3756,-106.2075 584.7872,-107.5652 595.6907,-108.7335 595.6907,-108.7335"/>
</g>
<!-- PuddlePassenger -->
<g id="node10" class="node">
<title>PuddlePassenger</title>
<ellipse fill="none" stroke="#000000" cx="594.6877" cy="-18" rx="70.0754" ry="18"/>
<text text-anchor="middle" x="594.6877" y="-13.8" font-family="Times,serif" font-size="14.00" fill="#000000">PuddlePassenger</text>
</g>
<!-- Passenger&#45;&gt;PuddlePassenger -->
<g id="edge5" class="edge">
<title>Passenger&#45;&gt;PuddlePassenger</title>
<path fill="none" stroke="#0e0d9f" d="M670.9851,-137.4219C654.4855,-111.5966 628.6204,-71.1121 611.6592,-44.564"/>
<ellipse fill="none" stroke="#0e0d9f" cx="673.2532" cy="-140.972" rx="4" ry="4"/>
<polygon fill="#0e0d9f" stroke="#0e0d9f" points="611.445,-44.2286 609.8532,-33.3789 608.753,-40.0151 606.061,-35.8017 606.061,-35.8017 606.061,-35.8017 608.753,-40.0151 602.2689,-38.2244 611.445,-44.2286 611.445,-44.2286"/>
</g>
<!-- Profile -->
<g id="node8" class="node">
<title>Profile</title>
<ellipse fill="none" stroke="#000000" cx="589.6877" cy="-162" rx="33.8857" ry="18"/>
<text text-anchor="middle" x="589.6877" y="-157.8" font-family="Times,serif" font-size="14.00" fill="#000000">Profile</text>
</g>
<!-- Puddle&#45;&gt;PuddlePassenger -->
<g id="edge7" class="edge">
<title>Puddle&#45;&gt;PuddlePassenger</title>
<path fill="none" stroke="#82bb0a" d="M574.6195,-64.6102C577.2788,-58.4338 580.135,-51.7999 582.8348,-45.5295"/>
<ellipse fill="none" stroke="#82bb0a" cx="572.9325" cy="-68.5283" rx="4" ry="4"/>
<polygon fill="#82bb0a" stroke="#82bb0a" points="582.943,-45.278 591.0308,-37.8727 584.9203,-40.6855 586.8977,-36.0931 586.8977,-36.0931 586.8977,-36.0931 584.9203,-40.6855 582.7645,-34.3135 582.943,-45.278 582.943,-45.278"/>
</g>
<!-- User&#45;&gt;Car -->
<g id="edge13" class="edge">
<title>User&#45;&gt;Car</title>
<path fill="none" stroke="#6312d2" d="M508.6382,-229.9263C560.3953,-223.2296 659.9954,-207.7836 740.6877,-180 742.5707,-179.3517 744.4807,-178.6246 746.3882,-177.8443"/>
<ellipse fill="none" stroke="#6312d2" cx="504.4188" cy="-230.4611" rx="4" ry="4"/>
<polygon fill="#6312d2" stroke="#6312d2" points="746.6521,-177.7255 757.618,-177.7214 751.211,-175.6719 755.7699,-173.6184 755.7699,-173.6184 755.7699,-173.6184 751.211,-175.6719 753.9217,-169.5154 746.6521,-177.7255 746.6521,-177.7255"/>
</g>
<!-- User&#45;&gt;Driver -->
<g id="edge9" class="edge">
<title>User&#45;&gt;Driver</title>
<path fill="none" stroke="#472843" d="M484.393,-209.1363C487.1884,-202.6436 490.2147,-195.6148 493.0558,-189.0162"/>
<ellipse fill="none" stroke="#472843" cx="482.7738" cy="-212.8969" rx="4" ry="4"/>
<polygon fill="#472843" stroke="#472843" points="493.0826,-188.9537 501.1704,-181.5485 495.0599,-184.3613 497.0373,-179.7689 497.0373,-179.7689 497.0373,-179.7689 495.0599,-184.3613 492.9041,-177.9893 493.0826,-188.9537 493.0826,-188.9537"/>
</g>
<!-- User&#45;&gt;Location -->
<g id="edge8" class="edge">
<title>User&#45;&gt;Location</title>
<path fill="none" stroke="#6bd775" d="M443.8753,-216.7537C429.583,-207.1841 412.728,-195.1617 399.054,-184.8219"/>
<polygon fill="#6bd775" stroke="#6bd775" points="444.152,-216.9357 450.0329,-226.1913 448.3291,-219.6838 452.5062,-222.432 452.5062,-222.432 452.5062,-222.432 448.3291,-219.6838 454.9795,-218.6726 444.152,-216.9357 444.152,-216.9357"/>
<polygon fill="#6bd775" stroke="#6bd775" points="398.9334,-184.7293 393.7434,-175.0694 394.9679,-181.6838 391.0024,-178.6384 391.0024,-178.6384 391.0024,-178.6384 394.9679,-181.6838 388.2615,-182.2073 398.9334,-184.7293 398.9334,-184.7293"/>
</g>
<!-- User&#45;&gt;Passenger -->
<g id="edge11" class="edge">
<title>User&#45;&gt;Passenger</title>
<path fill="none" stroke="#d4e7b9" d="M506.0981,-223.0444C542.4724,-210.7488 601.7019,-190.7276 642.3473,-176.9883"/>
<ellipse fill="none" stroke="#d4e7b9" cx="501.9109" cy="-224.4597" rx="4" ry="4"/>
<polygon fill="#d4e7b9" stroke="#d4e7b9" points="642.5256,-176.9281 653.44,-177.9888 647.2623,-175.327 651.999,-173.7258 651.999,-173.7258 651.999,-173.7258 647.2623,-175.327 650.5579,-169.4627 642.5256,-176.9281 642.5256,-176.9281"/>
</g>
<!-- User&#45;&gt;Profile -->
<g id="edge12" class="edge">
<title>User&#45;&gt;Profile</title>
<path fill="none" stroke="#22eca6" d="M500.5032,-217.3559C518.0084,-206.4906 540.9071,-192.2776 559.1183,-180.9741"/>
<ellipse fill="none" stroke="#22eca6" cx="497.0274" cy="-219.5133" rx="4" ry="4"/>
<polygon fill="#22eca6" stroke="#22eca6" points="559.1412,-180.9599 570.0108,-179.5096 563.3895,-178.3231 567.6377,-175.6863 567.6377,-175.6863 567.6377,-175.6863 563.3895,-178.3231 565.2645,-171.8629 559.1412,-180.9599 559.1412,-180.9599"/>
</g>
<!-- User&#45;&gt;Puddle -->
<g id="edge10" class="edge">
<title>User&#45;&gt;Puddle</title>
<path fill="none" stroke="#b00a46" d="M462.0765,-207.2408C455.7556,-188.3029 451.3016,-162.9991 462.6877,-144 475.6288,-122.4064 500.4738,-108.9635 522.2827,-100.891"/>
<polygon fill="#b00a46" stroke="#b00a46" points="462.1269,-207.3778 461.3619,-218.3169 463.8557,-212.0694 465.5844,-216.7611 465.5844,-216.7611 465.5844,-216.7611 463.8557,-212.0694 469.8069,-215.2052 462.1269,-207.3778 462.1269,-207.3778"/>
<polygon fill="#b00a46" stroke="#b00a46" points="522.5754,-100.7908 533.4941,-101.807 527.3055,-99.1703 532.0357,-97.5499 532.0357,-97.5499 532.0357,-97.5499 527.3055,-99.1703 530.5773,-93.2927 522.5754,-100.7908 522.5754,-100.7908"/>
</g>
</g>
</svg>
